<?xml version="1.0" standalone="no"?>
<!DOCTYPE svg PUBLIC "-//W3C//DTD SVG 1.1//EN" "http://www.w3.org/Graphics/SVG/1.1/DTD/svg11.dtd" >
<svg xmlns="http://www.w3.org/2000/svg">
<metadata></metadata>
<defs>
<font id="neutonregular" horiz-adv-x="847" >
<font-face units-per-em="2048" ascent="1638" descent="-410" />
<missing-glyph horiz-adv-x="365" />
<glyph horiz-adv-x="0" />
<glyph unicode="&#xd;" horiz-adv-x="682" />
<glyph horiz-adv-x="0" />
<glyph horiz-adv-x="0" />
<glyph unicode=" "  horiz-adv-x="365" />
<glyph unicode="&#x09;" horiz-adv-x="365" />
<glyph unicode="&#xa0;" horiz-adv-x="365" />
<glyph unicode="!" horiz-adv-x="447" d="M146 77q0 47 26 77t64 30q39 0 66 -30t27 -78t-25 -79.5t-67 -31.5t-66.5 33t-24.5 79zM162 1254q0 17 33 28q36 11 67 11q59 0 59 -39q0 -137 -13 -358.5t-39 -534.5l-67 15q-20 321 -30 540.5t-10 337.5z" />
<glyph unicode="&#x22;" horiz-adv-x="437" d="M103 1303l145 -12l-36 -392l-73 -8zM289 1303l147 -12l-36 -392l-74 -8z" />
<glyph unicode="#" horiz-adv-x="914" d="M-30 326l27 101h253l43 285h-252l28 101h239l51 337l93 10l-52 -347h225l51 337l93 9l-52 -346h262l-25 -101h-252l-42 -285h245l-26 -101h-234l-52 -345l-94 -7l53 352h-225l-52 -345l-93 -7l53 352h-265zM342 427h225l43 285h-225z" />
<glyph unicode="$" horiz-adv-x="860" d="M80 119l22 276l75 -11l33 -203q28 -49 85.5 -82.5t126.5 -40.5v506q-8 4 -19 11q-10 6 -24 14.5t-33 20.5q-92 58 -126 95q-17 19 -31 36.5t-26 34.5q-47 68 -47 180q0 111 81 197q82 87 201 109l-11 133l137 16l-13 -142q158 -11 253 -104l-27 -296l-73 9l-26 218 q-18 34 -62 63t-94 38v-476q13 -9 49 -29q89 -52 145 -92t79 -69q49 -60 65 -103q17 -45 17 -97q0 -131 -90 -225q-88 -92 -231 -121l11 -149l-145 -15l10 154q-99 5 -181 44q-82 40 -131 100zM252 1007q0 -41 11.5 -75t34 -64t54.5 -57.5t74 -54.5v443q-38 -3 -70 -18 t-55 -40t-36 -59t-13 -75zM484 59q87 11 146 65q60 55 60 156q0 100 -126 193q-16 12 -36 25.5t-44 28.5v-468z" />
<glyph unicode="%" horiz-adv-x="1738" d="M56 891q0 132 74 227q75 95 168 95q25 0 36 -4v-56q-15 12 -32.5 15.5t-35 -6.5t-34.5 -35.5t-30 -72.5q-18 -62 -18 -158q0 -48 7 -92t23 -86q30 -81 83 -81q40 0 67 41q50 76 50 240q0 167 -46 278l527 15l130 -4l-2 -16l-366 -600l-347 -631l-146 14l376 614l316 555 l-377 7q27 -32 45 -117q18 -86 18 -134q0 -126 -77 -221q-76 -94 -172 -94t-166 87q-71 89 -71 220zM652 270q0 131 74 226q75 95 174 95q100 0 169 -91q69 -92 69 -221q0 -130 -76 -222q-75 -93 -170 -93q-96 0 -168 87t-72 219zM780.5 269q-0.5 -54 12.5 -112 q6 -29 16 -54t24 -46q27 -41 65 -41t65 42q49 76 49 198q0 62 -8.5 113t-24.5 93q-33 84 -85 84q-83 0 -107 -178q-6 -45 -6.5 -99z" />
<glyph unicode="&#x26;" horiz-adv-x="1282" d="M56 273q0 63 20 118.5t58 106t93 97.5t126 92q-142 146 -142 276q0 131 88 219q88 90 212 90q62 0 111.5 -17t84.5 -49.5t54 -80t19 -109.5q0 -86 -62.5 -162t-179.5 -154v-7l243 -276l183 303l-157 37l6 55h425l-8 -55l-169 -34l-219 -367q106 -125 191.5 -198.5 t152.5 -93.5l39 -12l-10 -54q-51 -18 -106 -18q-123 0 -252 142l-95 105q-127 -184 -262 -228q-57 -19 -128 -19q-141 0 -229 83q-87 84 -87 210zM206 328q0 -96 59 -170q58 -72 159 -72q160 0 279 200l-298 340l-10 1q-88 -64 -138 -133q-51 -69 -51 -166zM331 1025 q0 -116 152 -273q81 58 121 112q41 55 41 135q0 82 -44 141q-44 60 -115 60t-113 -52q-42 -53 -42 -123z" />
<glyph unicode="'" horiz-adv-x="333" d="M111 1303l146 -12l-36 -392l-73 -8z" />
<glyph unicode="(" horiz-adv-x="474" d="M49 450q0 520 337 806l37 -55q-162 -212 -207 -469q-11 -63 -16.5 -132t-5.5 -144q0 -406 235 -786l-48 -45q-84 75 -133 151q-100 155 -149 313q-50 162 -50 361z" />
<glyph unicode=")" horiz-adv-x="474" d="M48 -330q235 380 235 786q0 300 -84 494q-64 145 -145 251l37 55q337 -286 337 -806q0 -365 -179 -643q-70 -108 -153 -182z" />
<glyph unicode="*" horiz-adv-x="593" d="M60 978l48 114l276 -118l-33 317l123 -11l-25 -299l290 125l27 -116l-291 -67l212 -237l-105 -63l-156 259l-161 -278l-93 81l198 227z" />
<glyph unicode="+" horiz-adv-x="680" d="M87 417l12 86h209v239l88 -12l1 -227h220l-11 -86h-209l2 -244l-91 13v231h-221z" />
<glyph unicode="," horiz-adv-x="397" d="M54 -240q180 58 180 190q0 27 -8.5 49.5t-23.5 39t-35.5 26t-44.5 9.5q-16 0 -29 -3q-8 26 -8 56q0 33 32 62q34 29 85 29q53 0 101 -54q49 -53 49 -146q0 -92 -40 -153q-73 -115 -240 -163z" />
<glyph unicode="-" horiz-adv-x="573" d="M81 409l11 80l408 18l-11 -81z" />
<glyph unicode="." horiz-adv-x="391" d="M109 80q0 49 24 77.5t66 28.5t67.5 -29t25.5 -78t-25 -80t-67 -31t-66.5 31.5t-24.5 80.5z" />
<glyph unicode="/" horiz-adv-x="610" d="M35 -361l463 1599l107 6l-466 -1599z" />
<glyph unicode="0" horiz-adv-x="984" d="M105 570q0 313 119 473q120 160 297 160q178 0 283 -158q106 -157 106 -458q0 -366 -172 -525q-98 -89 -225 -89q-178 0 -293 141q-115 142 -115 456zM273 586q0 -538 242 -538q118 0 172 132.5t54 406.5q0 538 -230 538q-238 0 -238 -539z" />
<glyph unicode="1" horiz-adv-x="889" d="M120 1l4 60l274 42v957h-259l5 61l386 64h27v-1087l268 -28l-9 -69h-696z" />
<glyph unicode="2" horiz-adv-x="959" d="M70 74l238 204q180 153 271 282q90 127 90 266q0 69 -12.5 125t-39 95.5t-67 60.5t-95.5 21q-75 0 -128.5 -31t-77.5 -76l-41 -241l-57 8l-10 269q43 58 147 105q105 47 213 47q158 0 250 -89t92 -260q0 -83 -23 -138q-22 -52 -43 -90.5t-41 -63.5l-52 -66 q-21 -27 -63 -66l-67 -63q-13 -12 -31.5 -28t-44.5 -37l-237 -190h499l95 243l55 -8l-47 -353h-767z" />
<glyph unicode="3" horiz-adv-x="959" d="M88 90l45 263l67 -11l10 -204q21 -39 77 -71q55 -31 118 -31q114 0 185 69q71 71 71 185q0 115 -95 189q-94 73 -241 76l-6 50l45 21q46 21 81 44.5t60 45t41.5 41t25.5 33.5q42 64 42 143q0 78 -48 141q-47 63 -140 63q-92 0 -163 -80l-43 -224l-64 11l-7 248 q46 43 135 81q91 38 208 38q118 0 204 -69q85 -69 85 -183q0 -162 -175 -270q-45 -28 -94 -46v-10q138 -19 227 -96q88 -76 88 -187q0 -110 -62 -199q-31 -44 -71.5 -77.5t-91.5 -58.5q-101 -48 -209 -48t-192 36q-85 38 -113 87z" />
<glyph unicode="4" horiz-adv-x="972" d="M38 415l617 776l49 -15q-9 -179 -9 -493v-221h255l-16 -105h-239v-268l206 -25l-11 -64h-592l7 57l247 38v266h-495zM186 462h362v486z" />
<glyph unicode="5" horiz-adv-x="959" d="M75 88l28 281l67 -14l18 -200q79 -97 197 -97t181 68q63 69 63 182q0 147 -124 232q-125 86 -340 99l115 532l449 27l-21 -149l-385 -17l-44 -261q372 -23 469 -255q28 -66 28 -148q0 -157 -122 -271q-122 -113 -296 -113t-283 104z" />
<glyph unicode="6" horiz-adv-x="940" d="M120 422q0 251 166 480t408 312l29 -50q-351 -156 -430 -555h9q107 100 253 100t233 -97q87 -98 87 -256q0 -159 -114 -268q-112 -109 -277 -109q-270 0 -344 275q-20 78 -20 168zM283 407q0 -156 62 -260q61 -103 154 -103q213 0 213 283q0 123 -60 207q-60 85 -168 85 q-65 0 -119 -25q-54 -24 -75 -54q-4 -24 -5.5 -57t-1.5 -76z" />
<glyph unicode="7" horiz-adv-x="919" d="M83 829l28 353h763v-52l-433 -1163l-159 17l474 1063h-551l-68 -227z" />
<glyph unicode="8" horiz-adv-x="938" d="M127 281q0 172 230 309v7q-184 124 -184 300q0 126 93 215q94 90 234 90t219 -79q79 -78 79 -186q0 -106 -56 -188q-55 -80 -138 -124l-3 -6q126 -85 182 -158q57 -74 57 -170q0 -139 -108 -229q-107 -89 -262 -89q-154 0 -249 86q-94 87 -94 222zM267 294 q0 -102 76 -175q76 -72 167 -72q45 0 82 13t63.5 36.5t40.5 57t14 75.5q0 83 -72 157q-72 73 -228 171q-69 -51 -106 -106q-37 -53 -37 -157zM293 957q0 -78 58 -145q29 -34 78 -72.5t118 -83.5q127 84 127 234q0 104 -59 178q-58 73 -141 73q-82 0 -132 -53 q-49 -52 -49 -131z" />
<glyph unicode="9" horiz-adv-x="937" d="M106 824q0 159 113 272t269 113q218 0 309 -190q53 -111 53 -277q0 -165 -74 -333q-73 -165 -216 -284q-141 -117 -324 -152l-19 58q265 78 378 285q60 111 81 260h-10q-110 -104 -255 -104q-146 0 -225 96q-80 98 -80 256zM264 862q0 -133 58 -215t166 -82q64 0 115 25 q53 26 76 61q9 51 9 142q0 151 -62 251q-61 100 -153 100q-209 0 -209 -282z" />
<glyph unicode=":" horiz-adv-x="403" d="M94 119q0 43 33 75q32 31 79 31q46 0 80 -32q33 -32 33 -75q0 -48 -33 -82t-80 -34t-80 34q-32 35 -32 83zM94 747q0 22 9 41.5t24 33.5t35.5 22t43.5 8q24 0 44.5 -8.5t35.5 -22.5t24 -34t9 -42q0 -48 -33 -82t-80 -34t-80 34q-32 35 -32 84z" />
<glyph unicode=";" horiz-adv-x="397" d="M69 -243q180 55 180 183q0 25 -8.5 47t-23.5 38t-35.5 25t-44.5 9q-16 0 -29 -3q-8 24 -8 54q0 32 32 59q32 28 85 28q52 0 101 -52t49 -148q0 -158 -161 -247q-50 -28 -119 -48zM150 741q0 49 24 77.5t66 28.5t67.5 -29t25.5 -78t-25 -80t-67 -31t-66.5 31.5t-24.5 80.5 z" />
<glyph unicode="&#x3c;" horiz-adv-x="697" d="M-13 427l1 29l621 518l35 -60l-471 -477l491 -462l-42 -57z" />
<glyph unicode="=" horiz-adv-x="800" d="M87 330l11 85h615l-11 -85h-615zM90 569l11 86h615l-11 -86h-615z" />
<glyph unicode="&#x3e;" horiz-adv-x="697" d="M67 -25l491 462l-471 477l35 60l621 -518l1 -29l-635 -509z" />
<glyph unicode="?" horiz-adv-x="619" d="M40 1169q0 38 55 78t143 40q127 0 228 -117q101 -118 101 -277q0 -92 -52 -143q-26 -25 -52 -45.5t-54 -37.5q-28 -16 -48 -29t-33 -23q-60 -45 -60 -102q0 -55 35 -142l-58 -17q-16 17 -29.5 41t-26.5 54q-25 59 -25 118q0 60 32 105t77 71l91 53q54 32 81.5 66.5 t27.5 76.5q0 84 -55 145q-56 63 -127 63q-121 0 -192 -74q-59 27 -59 96zM191 77q0 47 26.5 77t64.5 30q39 0 65.5 -30t26.5 -78t-25 -79.5t-67 -31.5t-66.5 33t-24.5 79z" />
<glyph unicode="@" horiz-adv-x="1362" d="M88 312q0 208 85 369q84 162 248 263q163 101 368 101q141 0 257 -58q117 -58 188 -165q70 -106 70 -224t-35 -210.5t-98 -164.5q-61 -70 -149.5 -112t-188.5 -42q-77 0 -71 118h-9q-32 -49 -90 -88q-57 -39 -122 -39t-108 69q-44 71 -44 184q0 221 124 348 q124 129 257 129q38 0 76 -4.5t76 -12.5l18 -21l-42 -367l-12 -89q-9 -66 -6.5 -105t30.5 -39q117 0 201 112q85 112 85 261q0 75 -16 136.5t-45.5 111t-71 86.5t-92.5 62q-101 51 -238 51q-138 0 -262 -84q-126 -83 -193 -224q-68 -142 -68 -309q0 -231 138 -367 q139 -137 381 -137q103 0 208 40q108 41 151 78l29 -51q-51 -34 -90 -56.5t-67 -34.5q-122 -54 -242 -54q-119 0 -206 21q-182 42 -303 177q-121 134 -121 341zM512 369q0 -209 84 -209q39 0 89 28t79 60l54 455q-44 11 -102 11q-88 0 -146 -103q-58 -101 -58 -242z" />
<glyph unicode="A" horiz-adv-x="1324" d="M35 0l8 58l145 43l438 1145l102 22l402 -1173l135 -31l-8 -64h-462l10 58l169 43l-124 354h-425l-131 -360l185 -32l-10 -63h-434zM453 534h373l-180 526z" />
<glyph unicode="B" horiz-adv-x="1135" d="M82 0l10 58l168 38v1033l-171 26l9 56l119 18l101 13q121 15 248 15q203 0 310 -84q107 -83 107 -206q0 -93 -52 -167.5t-154 -120.5v-7q144 -7 227 -96q83 -88 83 -196q0 -200 -168 -302q-131 -78 -365 -78h-472zM407 75h232q219 0 281 173q16 45 16 97q0 104 -69 188 q-69 85 -221 85h-239v-543zM407 685h284q66 34 106.5 94.5t40.5 142.5q0 61 -20.5 111t-62 85.5t-103.5 54.5t-145 19q-69 0 -100 -6v-501z" />
<glyph unicode="C" horiz-adv-x="1113" d="M108 572q0 59 5.5 111t16.5 99t28.5 91.5t41.5 88.5q49 90 116 157q69 69 171.5 110t223.5 41q220 0 351 -99l-31 -335l-68 10l-36 240q-84 109 -258 109q-173 0 -286 -152q-112 -151 -112 -406q0 -256 126 -404q126 -149 330 -149q100 0 193 48q94 49 164 120l29 -57 q-64 -85 -187 -152q-62 -33 -124 -51q-59 -17 -122 -17h-7q-194 2 -325 93.5t-197 267.5q-23 60 -33 118.5t-10 117.5z" />
<glyph unicode="D" horiz-adv-x="1344" d="M81 0l11 58l171 43v1027l-173 26l10 56q156 25 275 37t204 12q171 0 291 -34q225 -63 322 -217q98 -154 98 -362q0 -209 -120 -377q-121 -167 -352 -233q-125 -36 -274 -36h-463zM409 79h162q259 0 408 144q148 145 148 388q0 244 -145 407q-144 163 -425 163 q-54 0 -91 -1.5t-57 -3.5v-1097z" />
<glyph unicode="E" horiz-adv-x="1107" d="M84 1185l9 59h951l-31 -319l-67 9l-30 239h-503v-505h315l40 129l72 11l-33 -389l-66 -11l-25 186h-303v-519h529l86 249l62 -11l-30 -313h-970l6 58l169 38v1055z" />
<glyph unicode="F" horiz-adv-x="1123" d="M81 1185l8 59h950l-37 -321l-68 10l-28 240h-497v-521h311l41 130l71 10l-29 -390l-69 -11l-24 188h-301l-1 -483l241 -28l-12 -68h-551l5 58l169 38v1055z" />
<glyph unicode="G" horiz-adv-x="1357" d="M108 591q0 182 81 335q82 153 226 245q145 91 320 91q257 0 403 -100l-28 -321l-66 11l-33 214q-41 47 -125 81q-85 35 -193 35q-185 0 -303 -145t-118 -397q0 -187 76 -330q132 -249 420 -249q131 0 216 58l1 344l-239 32l10 61h518l-10 -57l-129 -32v-388 q-98 -59 -209 -81q-113 -24 -267 -24q-252 0 -402 171q-149 172 -149 446z" />
<glyph unicode="H" horiz-adv-x="1446" d="M83 1187l7 57h501l-8 -57l-169 -31v-484h673v482l-183 33l9 57h500l-9 -57l-167 -31v-1066l182 -27l-8 -63h-499l10 58l165 38v496l-673 -1v-501l186 -27l-12 -63h-497l6 58l168 38v1058z" />
<glyph unicode="I" horiz-adv-x="674" d="M86 1187l8 57h501l-9 -57l-172 -31v-1066l187 -27l-10 -63h-497l7 58l162 38v1058z" />
<glyph unicode="J" horiz-adv-x="614" d="M19 -259q124 112 185 223q60 109 60 245v945l-182 33l8 57h503l-9 -57l-170 -31l-2 -784q0 -114 -11.5 -202.5t-32.5 -152.5q-42 -127 -170 -237q-54 -47 -141 -105z" />
<glyph unicode="K" horiz-adv-x="1225" d="M83 1187l10 57h500l-7 -57l-171 -35v-1057l187 -32l-10 -63h-500l8 58l164 43v1048zM454 623q51 53 88 94.5t62 72.5l289 361l-165 36l6 57h450l-7 -57l-165 -35l-411 -503l245 -291q64 -76 112.5 -129t81.5 -82t70.5 -49.5t80.5 -29.5l46 -10l-11 -56q-67 -23 -120 -23 q-106 0 -191 71q-83 70 -182 196l-277 358z" />
<glyph unicode="L" horiz-adv-x="1088" d="M89 1186l9 58h502l-7 -58l-175 -34v-1077h487l105 266l64 -10l-34 -331h-946l8 58l167 38v1052z" />
<glyph unicode="M" horiz-adv-x="1681" d="M51 0l8 54l168 38l77 1059l-184 37l9 56h360l75 -191l287 -785l334 824l67 152h360l-7 -56l-171 -34l54 -1068l181 -26l-6 -60h-499l8 54l169 38l-57 995l-423 -1032l-89 -14l-376 1018l-71 -973l183 -26l-10 -60h-447z" />
<glyph unicode="N" horiz-adv-x="1402" d="M63 1188l10 56h327l667 -1019v929l-185 33l9 57h450l-11 -57l-166 -31v-1159l-104 -21l-713 1071v-957l184 -27l-10 -63h-448l6 58l167 38v1051z" />
<glyph unicode="O" horiz-adv-x="1331" d="M111 627v9q1 87 19 167q20 84 57 156.5t91.5 131t123.5 99.5q70 41 152 63q79 21 168 21h8q130 -2 234 -52t173 -138q142 -184 142 -460q0 -206 -104 -376q-168 -275 -535 -275q-71 0 -137.5 21t-130.5 66q-127 88 -193 234.5t-68 332.5zM278 655q0 -104 27 -215t78 -196 q53 -87 135 -136q85 -50 180 -50t166 30q125 55 187 191q62 138 62 300q0 163 -47 304q-46 139 -147 226q-100 88 -238 88q-247 0 -347 -223q-56 -127 -56 -319z" />
<glyph unicode="P" horiz-adv-x="1120" d="M85 0l8 58l163 38v1033l-166 26l8 56l48 7q20 3 32.5 5.5t19.5 3.5q29 5 55.5 8.5t50.5 5.5l54 5q94 8 178 9h13q77 0 143 -11q155 -26 247 -110q93 -84 93 -241q0 -117 -67 -211q-33 -47 -78 -83t-97.5 -61t-111 -37.5t-120.5 -12.5q-40 0 -74 3l-15 62l53 2 q87 3 152 26t107.5 62.5t63.5 95t21 124.5q0 138 -88 233q-44 48 -110 74q-55 22 -127 23q-14 0 -28 -1l-106 -6v-1092l235 -29l-11 -65h-546z" />
<glyph unicode="Q" horiz-adv-x="1344" d="M111 621q0 183 77 334q76 149 220 234q142 85 329 85q129 0 233.5 -50.5t173.5 -138.5q142 -182 142 -456q0 -310 -215 -505q-109 -98 -255 -133q63 -140 158 -200q93 -61 278 -85q-3 -46 -10 -61q-63 -30 -164 -30q-134 0 -230 102q-96 103 -115 262q-35 -6 -72 -6 q-157 0 -284 85q-125 85 -196 232q-70 146 -70 331zM268 693q0 -216 81 -376q82 -160 233 -229q42 -19 86 -29t92 -12q119 27 206 107q163 154 163 414q0 169 -53 311t-156 228q-104 86 -236 86q-196 0 -306 -143t-110 -357z" />
<glyph unicode="R" horiz-adv-x="1195" d="M105 0l9 58l162 38v1031l-166 26l10 56q277 45 461 45t307 -75q123 -74 123 -227q0 -106 -68.5 -196t-212.5 -151v-1l186 -268q51 -73 89.5 -122.5t64.5 -75.5q51 -51 123 -74l41 -13l-11 -53q-51 -17 -103 -17q-102 0 -177 72q-74 71 -145 192l-181 309h-194v-458 l200 -32l-10 -64h-508zM423 628h213q93 34 154 108q63 75 63 189t-83 189q-42 38 -98 58q-49 17 -109 17h-19l-121 -5v-556z" />
<glyph unicode="S" horiz-adv-x="881" d="M80 119l22 276l75 -11l33 -203q31 -55 97 -89.5t153 -34.5q85 0 158 56q72 57 72 163t-114 190q-26 19 -54 36.5t-58 36.5l-122 75q-31 19 -58.5 40t-53.5 43q-114 97 -114 241q0 102 54 180q105 152 294 152q190 0 300 -105l-27 -296l-73 9l-26 218q-21 40 -77 72 t-127 32t-127 -53q-55 -52 -55 -130q0 -79 32 -130q32 -52 84 -90t114 -76l124 -75q65 -40 114 -82q117 -98 117 -243t-122 -246q-121 -100 -302 -100q-103 0 -193 41q-88 40 -140 103z" />
<glyph unicode="T" horiz-adv-x="1134" d="M55 1244h1072l-34 -335l-73 11l-27 253h-338v-1079l181 -31l-12 -63h-497l6 58l172 38v1077h-325l-45 -261l-71 11z" />
<glyph unicode="U" horiz-adv-x="1371" d="M61 1187l9 57h498l-7 -57l-169 -31v-653q0 -430 360 -430q165 0 254 98.5t89 294.5l1 688l-184 33l8 57h451l-9 -57l-166 -31l-5 -653q-1 -264 -116 -398q-114 -132 -364 -132q-467 0 -467 492v689z" />
<glyph unicode="V" horiz-adv-x="1258" d="M38 1188l7 56h482l-7 -56l-169 -32l330 -950l348 946l-185 36l6 56h422l-5 -56l-130 -32l-434 -1160l-102 -21l-416 1177z" />
<glyph unicode="W" horiz-adv-x="1873" d="M43 1188l8 56h454l-9 -54l-166 -34l264 -931l290 974l111 15l266 -981l292 918l-184 38l8 55h417l-8 -56l-120 -34l-380 -1158l-109 -21l-265 996l-290 -975l-117 -20l-331 1177z" />
<glyph unicode="X" horiz-adv-x="1195" d="M-2 0l9 56l126 36l391 528l-364 534l-137 35l8 55h466l-7 -55l-156 -37l289 -425l314 428l-171 32l9 57h402l-4 -56l-126 -29l-368 -505l378 -570l136 -26l-10 -58h-465l9 51l162 39l-309 460l-333 -461l166 -27l-12 -62h-403z" />
<glyph unicode="Y" horiz-adv-x="1113" d="M-9 1188l9 56h463l-8 -56l-163 -32l296 -551l287 547l-184 36l6 56h417l-6 -56l-127 -32l-347 -647v-418l172 -28l-9 -63h-483l8 58l162 38v401l-354 655z" />
<glyph unicode="Z" horiz-adv-x="1051" d="M45 71l774 1099h-587l-78 -267l-64 15l9 326h903l2 -56l-785 -1109h618l115 268l69 -11l-48 -336h-921z" />
<glyph unicode="[" horiz-adv-x="476" d="M24 -375l1 1631h358l7 -71l-235 -21v-1450l237 -20l-8 -69h-360z" />
<glyph unicode="\" horiz-adv-x="611" d="M32 1259l108 -5l462 -1621l-104 5z" />
<glyph unicode="]" horiz-adv-x="476" d="M24 -306l237 20v1450l-235 21l8 71h357l1 -1631h-360z" />
<glyph unicode="^" horiz-adv-x="733" d="M49 826l289 412l56 13l294 -427l-48 -32l-277 306h-10l-262 -301z" />
<glyph unicode="_" horiz-adv-x="869" d="M14 -133l12 86h828l-10 -86h-830z" />
<glyph unicode="`" horiz-adv-x="579" d="M150 1661l104 37l133 -335l-51 -31z" />
<glyph unicode="a" d="M93 169q0 62 28 114.5t85 93t144 67t204 37.5v48q0 70 -9.5 124t-31 90t-56.5 54.5t-86 18.5q-56 0 -77 -21q-22 -22 -32 -57q-5 -17 -11 -51.5t-14 -85.5q-110 0 -110 86q-1 37 29 73q30 37 78 66q48 28 104 46q52 17 100 17h5q62 -1 107 -19.5t74 -56t43 -95.5t14 -137 v-351q0 -78 18 -112q19 -33 82 -45l58 -11l-9 -60q-43 -10 -77 -15t-60 -5q-53 0 -87 39q-35 39 -35 95v15h-8q-22 -54 -95 -106q-71 -50 -164 -50q-94 0 -152 52q-59 53 -59 142zM230 207q0 -54 34 -95q35 -41 92 -41q29 0 57.5 9t54 24.5t47.5 36.5t39 45v244 q-164 -28 -244 -79.5t-80 -143.5z" />
<glyph unicode="b" horiz-adv-x="961" d="M18 1191l9 54l258 20l15 -16v-412l-14 -104h12q136 153 284 153q149 0 236 -115q87 -116 87 -305q0 -235 -142 -362q-143 -128 -343 -128q-137 0 -249 73v1100zM300 126q64 -64 208 -64q101 0 178 92q77 94 77 252q0 272 -129 350q-48 29 -114 29q-111 0 -220 -117v-542z " />
<glyph unicode="c" horiz-adv-x="779" d="M91 420q0 201 116 335q115 133 284 133q117 0 174 -48q57 -47 57 -114q0 -82 -95 -99q-31 88 -74 135.5t-110 47.5q-92 0 -152 -88q-60 -89 -60 -255q0 -167 78 -282q80 -116 207 -116q129 0 226 79l21 -46q-41 -54 -127 -93t-179 -39q-168 0 -267 124t-99 326z" />
<glyph unicode="d" horiz-adv-x="997" d="M92 393q0 54 9.5 105.5t27 97.5t42.5 86t55 72q129 135 292 135q48 0 104 -15q54 -13 80 -33h8l-14 131v179l-152 43l9 53l258 22l15 -17v-1030q0 -105 42 -132q11 -7 25.5 -11.5t31.5 -8.5l53 -12l-9 -60q-69 -20 -129 -20q-61 0 -95.5 40t-34.5 106v7h-10 q-111 -152 -289 -152q-139 0 -229 109t-90 305zM230 446q0 -172 64 -270q64 -99 180 -99q61 0 126 35q65 34 100 81v492q-21 30 -47.5 53t-57 39t-63 24.5t-63.5 8.5q-110 0 -174 -97q-65 -97 -65 -267z" />
<glyph unicode="e" horiz-adv-x="812" d="M94 420q0 109 33.5 199t90.5 147q118 120 268 120q115 0 182.5 -76t67.5 -228q0 -63 -17 -131l-484 -6q5 -149 73 -258q70 -109 201 -109t234 70l19 -44q-116 -134 -309 -134q-147 0 -253 114q-106 115 -106 336zM237 507l351 23q7 18 7 95t-43 130q-42 54 -120 54 t-135 -79q-56 -78 -60 -223z" />
<glyph unicode="f" horiz-adv-x="651" d="M70 0l12 51l152 36v704h-149l12 54l138 22q19 217 126 327q106 111 221 111q80 0 129 -31t49 -72q0 -75 -69 -103q-85 121 -177 121q-63 0 -103.5 -59.5t-41.5 -179.5l-1 -120h258l-13 -70h-245v-700l246 -30l-7 -61h-537z" />
<glyph unicode="g" horiz-adv-x="865" d="M50 -165q0 71 56 118q57 46 114 75v7q-96 45 -96 127q0 35 46 81q47 47 106 79v5q-48 18 -100 89q-51 70 -51 162q0 123 95 215t210 92q116 0 205 -63l219 16l16 -18l-35 -95l-12 -2l-141 41l-3 -11q7 -13 14 -31.5t15 -43.5q15 -50 15 -90q0 -82 -49 -152 q-48 -71 -120 -108q-36 -18 -69.5 -26.5t-63.5 -10t-57 2.5t-49 12l-33 -32q-33 -33 -33 -64q0 -78 170 -78h154q126 0 180 -26q53 -26 71 -64q17 -38 17 -105v-7q-1 -73 -64 -149t-164.5 -122t-236.5 -46t-230 58q-96 57 -96 164zM186 -116q0 -183 276 -183q105 0 178 49 t73 131t-44 109t-177 27h-212q-31 -8 -62 -42q-32 -35 -32 -91zM252 603q0 -100 54 -172q55 -72 127 -72t116 52t44 155q0 100 -49 180q-49 79 -129 79q-40 0 -70.5 -16t-51 -45t-31 -70t-10.5 -91z" />
<glyph unicode="h" horiz-adv-x="1046" d="M55 0l11 57l154 30v1067l-157 42l9 54l264 21l16 -17v-415l-13 -106h8q144 158 319 158q97 0 157 -70q61 -70 61 -233v-502l142 -28l-9 -58h-411l9 54l137 32l3 475v7q0 57 -13 97.5t-36 66.5t-55 38.5t-70 12.5q-125 0 -229 -113v-583l145 -29l-10 -58h-432z" />
<glyph unicode="i" horiz-adv-x="555" d="M80 0l12 55l151 32v685l-152 42l8 51l259 22l16 -16v-784l160 -30l-11 -57h-443zM213 1198q0 48 23 75.5t61 27.5t62 -27.5t24 -75.5t-23 -76.5t-63 -28.5q-39 0 -61.5 29.5t-22.5 75.5z" />
<glyph unicode="j" horiz-adv-x="460" d="M4 -315q156 119 195 299q8 40 12.5 83.5t4.5 92.5v600l-151 41l9 54l258 20l17 -17v-707q0 -172 -64 -299t-196 -208l-44 -27zM182 1190q0 51 25.5 80t67.5 29t68 -29.5t26 -80.5q0 -49 -26 -80.5t-68 -31.5t-67.5 32t-25.5 81z" />
<glyph unicode="k" horiz-adv-x="977" d="M59 0l10 55l154 32v1064l-156 41l6 52l263 22l16 -17v-1162l160 -30l-9 -57h-444zM382 429v18l286 334l-134 37l8 55h393l-10 -54l-150 -37l-265 -309l232 -277q31 -36 57 -60.5t46 -38.5q40 -25 97 -33l39 -5l-9 -59q-59 -20 -105 -20h-3q-48 0 -81 12q-35 12 -89 59 q-54 48 -178 207z" />
<glyph unicode="l" horiz-adv-x="540" d="M59 0l10 55l154 32v1069l-156 41l6 52l262 21l17 -16v-1167l161 -30l-12 -57h-442z" />
<glyph unicode="m" horiz-adv-x="1592" d="M81 0l9 54l152 32v667l-157 40l6 52l269 30l12 -14l-11 -133h8q55 67 136 113q82 48 166 48q85 0 142.5 -42.5t75.5 -123.5h11q52 67 132 114q81 48 169 48q126 0 181 -75t55 -213v-510l142 -27l-13 -58h-397l6 52l130 32v487q0 100 -45.5 153.5t-130.5 53.5 q-112 0 -224 -120v-574l139 -28l-8 -58h-398l8 54l133 32v487q0 93 -47 151q-47 57 -120 57q-146 0 -239 -115v-580l143 -28l-10 -58h-425z" />
<glyph unicode="n" horiz-adv-x="1071" d="M79 0l8 52l153 34v669l-155 39l7 52l265 30l12 -14l-10 -132h8q49 61 135 111q85 49 184 49q49 0 90.5 -18.5t70.5 -54.5t45.5 -90.5t16.5 -126.5v-514l141 -28l-7 -58h-413l8 52l140 34v482q0 54 -12.5 94t-35 66.5t-53.5 39.5t-67 13t-67 -6t-59.5 -19.5t-56 -34.5 t-57.5 -51v-584l146 -28l-10 -58h-427z" />
<glyph unicode="o" horiz-adv-x="944" d="M94 422q0 208 121 338q121 129 297 131q85 0 155 -35t119 -96q50 -62 76 -144q26 -80 26 -170v-7q-2 -207 -117 -336q-115 -130 -289 -130q-173 0 -281 121q-107 122 -107 328zM235 495q0 -127 31 -222t97 -157t164 -62t159 94t61 244q0 148 -69 276q-33 63 -87.5 100.5 t-121.5 37.5q-109 0 -172 -93q-62 -92 -62 -218z" />
<glyph unicode="p" horiz-adv-x="978" d="M52 -373l6 58l152 30v1039l-154 38l8 53l265 28l13 -14l-9 -137h7q47 64 119 115q71 49 161 49q135 0 218 -105q82 -104 82 -319q0 -214 -124 -348q-123 -134 -314 -134q-21 0 -46.5 3t-55.5 8l-5 96q60 -23 163 -23q105 0 172 91q68 92 68 249q0 377 -224 377 q-98 0 -214 -119v-948l156 -26l-10 -61h-434z" />
<glyph unicode="q" horiz-adv-x="963" d="M88 407q0 100 37 189.5t96 153.5q43 48 99.5 81.5t118.5 48.5q41 9 83 9q22 0 44 -3q66 -7 128 -41l94 33h23v-1158l161 -26l-9 -61h-444l8 59l151 28v971q-31 48 -86 83t-128 35q-100 0 -169 -96q-68 -95 -68 -267q0 -173 63 -270q63 -98 175 -98q41 0 93 13 q54 13 89 36l4 -56q-43 -42 -114 -68q-68 -24 -132 -24q-140 0 -229 107q-88 106 -88 321z" />
<glyph unicode="r" horiz-adv-x="738" d="M76 0l8 52l155 34v671l-160 39l9 52l259 29l16 -17l-14 -245h14q36 128 101 204q66 76 128 76q63 0 92 -28q30 -29 30 -74t-62 -89q-51 52 -109 52q-59 0 -108 -84q-50 -84 -66 -208v-376l230 -27l-8 -61h-515z" />
<glyph unicode="s" horiz-adv-x="692" d="M71 154q0 45 30 75t76 35q47 -224 195 -224q74 0 115 34q42 34 42 78q0 33 -13.5 59t-36 48t-53 41.5t-63.5 39.5q-54 32 -99.5 63.5t-82.5 63.5q-73 64 -73 164q0 99 69 179q70 79 208 79q97 0 164 -50q66 -50 66 -115q0 -118 -105 -127l-8 39q-20 96 -59 142.5 t-96 46.5q-60 0 -97 -35q-36 -35 -36 -83t24 -84q37 -54 146 -121l93 -57q56 -34 91.5 -69.5t54.5 -69.5q24 -44 24 -94q0 -108 -90 -178q-89 -69 -209 -69q-121 0 -199 53q-78 52 -78 136z" />
<glyph unicode="t" horiz-adv-x="640" d="M66 771v40q135 61 214 257h47v-228h283l-8 -72h-276l-3 -458v-13q-1 -53 7 -89q8 -42 25 -65q31 -45 102 -45q35 0 69.5 11t67.5 37l22 17l19 -44q-46 -66 -113 -104.5t-142 -38.5q-191 0 -191 269v6l4 520h-127z" />
<glyph unicode="u" horiz-adv-x="1013" d="M54 800l8 53l249 21l16 -17v-540q0 -231 172 -231q114 0 206 101v567l-157 36l6 60l266 24l14 -17v-634q0 -38 5 -64t16 -43.5t30 -28.5t48 -17l54 -12l-7 -59q-69 -20 -130 -20t-97 40t-36 101v12h-12q-105 -156 -278 -156q-228 0 -228 299v482z" />
<glyph unicode="v" horiz-adv-x="921" d="M30 806l7 55h406l-5 -53l-146 -37l209 -610l212 608l-160 37l11 55h359l-9 -53l-109 -37l-281 -782l-90 -15l-282 795z" />
<glyph unicode="w" horiz-adv-x="1237" d="M22 808l7 55h383l-7 -54l-135 -32l121 -417l37 -157l163 595l114 19l138 -472l32 -152l161 582l-151 33l7 55h356l-8 -54l-108 -32l-222 -786l-85 -16l-191 655l-172 -639l-87 -16l-237 800z" />
<glyph unicode="x" horiz-adv-x="934" d="M17 0l9 52l108 34l266 345l-246 352l-118 32l7 55h394l-10 -53l-115 -32l184 -258l197 254l-138 34l12 55h349l-11 -54l-104 -33l-251 -324l262 -375l114 -32l-8 -52h-405l12 51l127 33l-196 278l-212 -276l142 -32l-9 -54h-360z" />
<glyph unicode="y" horiz-adv-x="936" d="M30 -266q0 51 45 90q70 -53 158 -53q56 0 101.5 44.5t80.5 135.5l23 61l-278 760l-124 33l9 56h383l-6 -53l-127 -33l215 -580l230 576l-130 35l11 55h317l-5 -53l-101 -36l-330 -825q-71 -178 -143 -253q-70 -73 -184 -73q-63 0 -104 31q-41 30 -41 82z" />
<glyph unicode="z" horiz-adv-x="858" d="M96 63l516 725h-385l-56 -205l-56 9l10 269h647l2 -52l-523 -731h413l75 197l51 -6l-30 -269h-660z" />
<glyph unicode="{" horiz-adv-x="607" d="M32 402v74l48 8q113 18 132 172q9 69 10 150t6 160q3 58 14 110.5t36.5 92.5t67 63.5t106.5 23.5h102l-8 -74l-94 -7q-74 -6 -84 -139q-2 -29 -3.5 -62t-1.5 -69q0 -178 -23 -285q-32 -146 -156 -177v-5q64 -14 103 -61t54 -113q11 -49 15.5 -104.5t7 -111t3.5 -109 t6 -97.5q13 -133 91 -139l87 -6l8 -75h-103q-132 0 -178 88q-48 89 -52 221q-2 31 -2.5 62t-1.5 63q-2 150 -22 225q-27 102 -117 114z" />
<glyph unicode="|" horiz-adv-x="448" d="M191 -367v1628l96 -13v-1628z" />
<glyph unicode="}" horiz-adv-x="607" d="M32 -378l8 75l87 6q79 6 91 139q6 60 6.5 133t5.5 148q3 55 12 107.5t28.5 95t52.5 72t83 40.5v5q-125 31 -156 177q-12 55 -18 112.5t-5 120.5q1 124 -3 183q-10 133 -85 139l-94 7l-8 74h102q84 0 132.5 -40t68.5 -106q14 -48 19 -105.5t7 -118t3.5 -120t8.5 -110.5 q21 -154 132 -172l49 -8v-74l-52 -7q-112 -15 -130 -171q-8 -69 -8.5 -150t-5.5 -160q-3 -59 -14.5 -112t-37 -93t-68.5 -63.5t-108 -23.5h-103z" />
<glyph unicode="~" horiz-adv-x="947" d="M83 417q5 23 27 68t45 73q12 13 27.5 25t34 20t39.5 11t42 -1l399 -71q32 -6 60 13q30 22 43 45l14 24l55 -1l-8 -25q-20 -62 -55 -104q-37 -45 -76.5 -62.5t-82.5 -9.5l-399 71q-31 5 -59 -16q-14 -11 -25 -22.5t-19 -24.5l-15 -26z" />
<glyph unicode="&#xa1;" horiz-adv-x="434" d="M127 799q0 48 24.5 79.5t66.5 31.5q21 0 38 -9t29 -24t18.5 -35.5t6.5 -44.5q0 -46 -26.5 -75.5t-65.5 -29.5q-38 0 -64.5 30t-26.5 77zM135 -377q0 290 51 901l3 5l64 -14v-3q0 -168 6.5 -307t14.5 -250t14.5 -193.5t6.5 -136.5v-2q-6 -18 -38 -29q-33 -11 -63 -11 q-59 0 -59 40z" />
<glyph unicode="&#xa2;" horiz-adv-x="803" d="M87 412q0 188 90 325q91 138 227 172l-29 226l127 17l-22 -232h7q117 0 173 -47q57 -47 57 -114q0 -82 -95 -99q-31 88 -73.5 135.5t-109.5 47.5q-90 0 -151 -100t-61 -269t78 -287q79 -118 207 -118t225 79l21 -46q-38 -50 -113 -87q-73 -36 -160 -44l29 -221l-128 -17 l23 239q-99 12 -173 74q-149 126 -149 366z" />
<glyph unicode="&#xa3;" horiz-adv-x="1092" d="M82 0l7 58l168 38q17 63 27.5 153.5t12.5 211.5l1 100l-178 -9l11 79l170 10l3 145q5 234 97 349.5t271 115.5q137 0 232 -40l-31 -319l-67 10l-31 239q-30 15 -59 22t-55 8t-48.5 -2.5t-38.5 -9.5q-70 -25 -94 -127q-11 -51 -18 -133t-7 -197v-54l219 13l-10 -80 l-211 -13v-52q0 -152 -16.5 -260.5t-45.5 -177.5l499 -1l111 259l63 -14l-34 -322h-948z" />
<glyph unicode="&#xa4;" horiz-adv-x="769" d="M83 723l68 66l78 -88q17 14 37.5 26.5t42.5 22t43.5 15t39.5 5.5q37 0 85 -18q49 -18 80 -42l77 80l59 -70l-84 -74q44 -79 44 -135q0 -110 -51 -177l93 -86l-69 -64l-79 90q-91 -56 -158 -56q-66 0 -149 50l-77 -89l-67 68l84 78q-11 16 -20 36t-17 43q-16 47 -16 84 q0 80 47 150zM217 494q0 -85 47 -140q47 -53 124 -53q78 0 127 52t49 138q0 87 -49 140q-50 54 -127 54q-39 0 -70.5 -13.5t-54 -38.5t-34.5 -60.5t-12 -78.5z" />
<glyph unicode="&#xa5;" horiz-adv-x="1151" d="M90 1188l8 56h439l-8 -56l-150 -32l239 -518l227 513l-171 37l6 56h394l-7 -56l-126 -33l-267 -577h330l-11 -73h-338v-167h346l-11 -73h-335v-175l174 -28l-9 -62h-481l8 56l162 40v169h-326l11 73h315v167h-323l11 73h293l-263 574z" />
<glyph unicode="&#xa6;" horiz-adv-x="449" d="M193 -370v789l95 -8v-791zM193 537v720l94 -9l-2 -719z" />
<glyph unicode="&#xa7;" horiz-adv-x="875" d="M75 -238l21 277l76 -10l32 -205q15 -27 40 -49.5t57.5 -39t71.5 -25.5t82 -9q86 0 158 57q73 57 73 162q0 104 -116 188q-26 19 -54 36.5t-59 36.5l-123 75q-31 19 -58.5 39.5t-52.5 42.5q-112 99 -105 238l474 -282q39 -23 66 -41.5t43 -32.5q75 -68 102 -123 q28 -55 28 -122q0 -155 -121 -255q-122 -101 -301 -101q-103 0 -194 41t-140 102zM113 938q0 103 53 180q105 152 295 152q189 0 299 -105l-27 -296l-73 9l-26 218q-21 40 -77 72t-126 32q-71 0 -127 -53t-56 -130q0 -78 33 -130t86 -90.5t117 -76.5l126 -76 q32 -19 59.5 -40t53.5 -43q115 -98 107 -243q-242 146 -368 223t-139 85q-102 64 -156 138q-54 73 -54 174z" />
<glyph unicode="&#xa8;" horiz-adv-x="365" d="M-205 180q0 37 19 57.5t51 20.5q31 0 51 -20.5t20 -57.5t-19.5 -59t-51.5 -22t-51 22.5t-19 58.5zM63 180q0 37 19 57.5t50 20.5q32 0 52.5 -20.5t20.5 -57.5t-20 -59t-53 -22q-32 0 -50.5 22.5t-18.5 58.5z" />
<glyph unicode="&#xa9;" horiz-adv-x="1378" d="M72 633q0 72 12.5 139.5t36 129t57 115t75.5 97.5q84 88 196 137.5t238 49.5q191 0 334 -85q72 -42 127.5 -102t93 -133.5t57 -159.5t19.5 -181q0 -190 -82 -339q-81 -151 -228 -236q-148 -86 -331 -86q-272 0 -439 182q-166 182 -166 472zM167 644q2 -254 146 -418 q146 -164 373 -164q151 0 273 73q123 73 194 202q71 131 71 294t-65 299q-64 135 -188 213q-62 40 -130.5 59t-146.5 20q-76 1 -145 -19.5t-128 -58t-106 -91t-80.5 -118t-51 -138.5t-16.5 -153zM377 640q0 169 97 279q97 111 237 111q48 0 84.5 -10.5t60.5 -29t36 -43 t12 -52.5q0 -69 -79 -82q-25 70 -62 112q-36 40 -103 40t-116 -73q-50 -74 -50 -213q0 -140 65 -236q64 -96 174 -96q108 0 188 66l17 -39q-35 -45 -106 -78q-72 -32 -149 -32q-141 0 -224 104q-82 103 -82 272z" />
<glyph unicode="&#xaa;" d="M143 690q0 104 91 179t280 81v30q0 58 -7 100t-20 68q-27 54 -105 54q-43 0 -60 -20q-29 -38 -41 -159q-45 -3 -77.5 20t-32.5 68q0 64 85 110q86 47 182 47q199 0 199 -246v-266q0 -65 12 -90q12 -26 62 -35l48 -9l-7 -48q-38 -31 -98 -31q-30 0 -53.5 9t-40 24 t-25 34.5t-8.5 40.5v11h-6q-19 -44 -75 -85q-53 -40 -130 -40q-38 0 -69.5 11t-54.5 31t-36 48t-13 63zM275 725q0 -100 91 -100q85 0 148 90v185q-121 -19 -180 -59.5t-59 -115.5z" />
<glyph unicode="&#xab;" horiz-adv-x="432" d="M23 469l268 352l36 -47l-176 -313l177 -333l-42 -51l-261 372zM270 469l268 352l36 -47l-176 -313l177 -333l-42 -51l-261 372z" />
<glyph unicode="&#xac;" horiz-adv-x="931" d="M78 584l12 80h745l1 -313l-89 -19v252h-669z" />
<glyph unicode="&#xad;" horiz-adv-x="573" d="M82 420l8 89l408 61l-8 -90z" />
<glyph unicode="&#xae;" horiz-adv-x="1351" d="M177 1022q0 230 135 364q136 134 340 134q296 0 426 -226q66 -113 66 -265q0 -151 -69 -263q-69 -111 -182 -168q-114 -56 -247 -56t-239 58q-106 59 -168 169q-62 109 -62 253zM249 1040q0 -199 112 -317q113 -119 289 -119q178 0 299 115q123 115 123 306t-119 312 q-119 120 -298 122t-292 -109q-114 -111 -114 -310zM398 774l5 39l75 21v432l-77 13l5 38q126 21 227 21q102 0 161 -34.5t59 -94.5q0 -118 -131 -175l-1 -1l84 -107q22 -27 38 -45.5t27 -28.5q24 -21 71 -38l-6 -41q-24 -8 -68 -8q-46 0 -82.5 30.5t-76.5 103.5l-61 111 h-73v-175l85 -18l-5 -43h-256zM574 1062h91q85 46 85 119q0 104 -131 104h-13l-22 -1h-10v-222z" />
<glyph unicode="&#xaf;" horiz-adv-x="667" d="M108 1380l11 76h441l-10 -76h-442z" />
<glyph unicode="&#xb0;" horiz-adv-x="424" d="M32 1103q0 83 56 142q57 59 139 59q84 0 126.5 -46t42.5 -131q0 -84 -57 -142q-57 -57 -137 -57q-79 0 -124.5 46.5t-45.5 128.5zM108 1124q0 -58 29 -101q30 -42 77 -42q48 0 76.5 33t28.5 93q0 59 -30 101q-30 43 -79 43q-48 0 -75 -33.5t-27 -93.5z" />
<glyph unicode="&#xb1;" horiz-adv-x="680" d="M60 26l17 84l611 3l-17 -84zM95 482l12 86h209v239l88 -12l1 -227h220l-11 -86h-209l2 -244l-91 13v231h-221z" />
<glyph unicode="&#xb2;" horiz-adv-x="631" d="M44 548l2 78l154 124q55 44 93.5 82.5t62.5 70.5q49 65 49 135q0 156 -133 156q-75 0 -105 -40l-24 -140l-55 5l-5 165q27 40 96.5 65t162.5 25q92 0 154 -51t62 -139q0 -87 -34 -136q-59 -85 -126 -140l-78 -64l-94 -69l-35 -23h293l62 150l46 -12l-20 -242h-528z" />
<glyph unicode="&#xb3;" horiz-adv-x="650" d="M56 598l33 170l59 -6l6 -128q37 -55 136 -55q52 0 95 41q42 40 42 106t-67 108q-67 43 -156 44l-8 40q97 38 143.5 79t46.5 92q0 52 -29 90t-88 38q-58 0 -83 -27l-28 -141l-63 6l-4 155q25 31 92 54q66 24 148 24q83 0 142 -44q60 -44 60 -115q0 -36 -13.5 -65.5 t-37 -53t-56 -41t-71.5 -29.5v-7q103 -12 161 -62t58 -138t-94 -155q-92 -67 -218 -67q-36 0 -69 6.5t-60 17.5t-47 27t-30 36z" />
<glyph unicode="&#xb4;" horiz-adv-x="567" d="M199 1376l128 330l103 -39l-182 -321z" />
<glyph unicode="&#xb6;" horiz-adv-x="1291" d="M144 836q0 175 136 292t324 117h265v-1245h-365l6 58l229 39v1072q-20 1 -42.5 1.5t-47.5 0.5q-336 0 -336 -319q0 -134 86 -225q87 -90 243 -90l-18 -74q-480 0 -480 373zM936 0v1245h302l-7 -57l-173 -31v-1068l186 -26l-9 -64z" />
<glyph unicode="&#xb7;" horiz-adv-x="402" d="M111 502q0 49 25 77.5t67 28.5t67 -28.5t25 -77.5t-25 -80t-67 -31t-67 31t-25 80z" />
<glyph unicode="&#xb8;" horiz-adv-x="361" d="M76 -339q43 15 73 42q15 13 21.5 24t8 20t0 16t-3.5 13q-8 26 -23 42l-4 4q-2 2 -5 5.5t-7 8.5q-3 4 -19 19l-18 17l91 131h67l-54 -79q89 -80 89 -151q0 -103 -200 -163z" />
<glyph unicode="&#xb9;" horiz-adv-x="563" d="M69 548l3 60l158 23v530h-150l4 61l268 36h19v-630l155 -10l-5 -70h-452z" />
<glyph unicode="&#xba;" horiz-adv-x="944" d="M126 866q0 102 29 178t77 126t111 75t132 25q141 0 228 -103q87 -104 87 -262q0 -159 -98 -265q-98 -104 -241 -104t-234 97t-91 233zM261 964q0 -165 54 -262q54 -98 169 -98q84 0 127 73q44 74 44 173t-21 173q-19 72 -71 124q-51 51 -131 51q-81 0 -126 -71t-45 -163z " />
<glyph unicode="&#xbb;" horiz-adv-x="432" d="M24 128l177 333l-176 313l36 47l268 -352l-2 -20l-261 -372zM271 128l177 333l-176 313l36 47l268 -352l-2 -20l-261 -372z" />
<glyph unicode="&#xbc;" horiz-adv-x="1737" d="M-15 550l3 60l158 23v530h-150l4 61l268 36h19v-630l155 -10l-5 -70h-452zM182 -26l376 614l354 623l136 -4l-2 -17l-366 -599l-348 -631zM642 250l396 480l50 -9q-4 -48 -6 -121.5t-2 -174.5v-151h148l-9 -86h-139v-114l119 -19l-6 -55h-394l5 50l150 26v116h-302z M748 274h204v258z" />
<glyph unicode="&#xbd;" horiz-adv-x="1737" d="M-15 550l3 60l158 23v530h-150l4 61l268 36h19v-630l155 -10l-5 -70h-452zM172 -26l376 614l354 623l136 -4l-2 -17l-366 -599l-348 -631zM746 1l2 77l154 124q55 44 93.5 82.5t62.5 70.5q49 65 49 135q0 156 -133 156q-75 0 -105 -40l-24 -139l-55 5l-5 164q26 39 96 65 q69 25 163 25q92 0 154 -51t62 -148q0 -96 -61 -166q-30 -35 -57.5 -63t-53.5 -48l-160 -122l-35 -24h293l62 150l46 -12l-20 -241h-528z" />
<glyph unicode="&#xbe;" horiz-adv-x="1737" d="M-8 595l34 171l59 -7l6 -127q38 -56 135 -56q52 0 95 41q43 42 43 107q0 66 -67 108q-68 43 -157 44l-8 39q104 41 147 83.5t43 91.5q0 48 -29 86t-88 38t-83 -26l-28 -142l-62 6l-4 156q25 31 92 54q66 24 148 24q83 0 142 -44q60 -44 60 -116q0 -36 -13.5 -65.5 t-37 -53t-56 -41t-71.5 -29.5v-7q103 -12 160.5 -62t57.5 -138t-94 -155q-92 -67 -218 -67q-36 0 -69 6.5t-60 17.5t-47 27t-30 36zM189 -26l377 614l353 623l137 -4l-3 -17l-366 -599l-347 -631zM642 250l396 480l50 -9q-4 -48 -6 -121.5t-2 -174.5v-151h148l-9 -86h-139 v-114l119 -19l-6 -55h-394l5 50l150 26v116h-302zM748 274h204v258z" />
<glyph unicode="&#xbf;" horiz-adv-x="619" d="M67 7q0 64 30.5 112.5t75.5 77.5l87 55q53 33 79.5 67.5t26.5 72.5q0 50 -35 137l58 17q16 -17 29.5 -41t26.5 -54q25 -59 25 -119q0 -58 -32 -103.5t-77 -71.5l-91 -53q-54 -32 -81.5 -66.5t-27.5 -76.5q0 -84 55 -145q55 -63 127 -63q121 0 192 74q59 -27 59 -96 q0 -37 -56 -78q-55 -40 -142 -40q-129 0 -229 117q-100 116 -100 277zM260 824q0 48 24.5 79.5t66.5 31.5q21 0 38 -9t29 -24t18.5 -35.5t6.5 -44.5q0 -46 -26.5 -76t-65.5 -30q-38 0 -64.5 30.5t-26.5 77.5z" />
<glyph unicode="&#xc0;" horiz-adv-x="1324" d="M35 0l8 58l145 43l438 1145l102 22l402 -1173l135 -31l-8 -64h-462l10 58l169 43l-124 354h-425l-131 -360l185 -32l-10 -63h-434zM453 534h373l-180 526zM482 1701l104 37l133 -335l-51 -31z" />
<glyph unicode="&#xc1;" horiz-adv-x="1324" d="M35 0l8 58l145 43l438 1145l102 22l402 -1173l135 -31l-8 -64h-462l10 58l169 43l-124 354h-425l-131 -360l185 -32l-10 -63h-434zM453 534h373l-180 526zM638 1402l128 330l103 -39l-182 -321z" />
<glyph unicode="&#xc2;" horiz-adv-x="1324" d="M35 0l8 58l145 43l438 1145l102 22l402 -1173l135 -31l-8 -64h-462l10 58l169 43l-124 354h-425l-131 -360l185 -32l-10 -63h-434zM453 534h373l-180 526zM479 1402l168 180l55 14l178 -186l-40 -37l-173 122h-9l-149 -123z" />
<glyph unicode="&#xc3;" horiz-adv-x="1324" d="M35 0l8 58l145 43l438 1145l102 22l402 -1173l135 -31l-8 -64h-462l10 58l169 43l-124 354h-425l-131 -360l185 -32l-10 -63h-434zM453 534h373l-180 526zM454 1382q20 68 41 93q48 58 106 46l203 -42q22 -5 41 8t35 46l42 -2q-30 -105 -96 -133q-14 -7 -28.5 -8t-30.5 2 l-201 42q-42 9 -79 -62z" />
<glyph unicode="&#xc4;" horiz-adv-x="1324" d="M35 0l8 58l145 43l438 1145l102 22l402 -1173l135 -31l-8 -64h-462l10 58l169 43l-124 354h-425l-131 -360l185 -32l-10 -63h-434zM453 534h373l-180 526zM475 1454q0 37 19 57.5t50 20.5q32 0 52 -20.5t20 -57.5t-19.5 -59t-51.5 -22t-51 22.5t-19 58.5zM743 1454 q0 37 19 57.5t50 20.5q32 0 52.5 -20.5t20.5 -57.5t-20 -59t-53 -22q-32 0 -50.5 22.5t-18.5 58.5z" />
<glyph unicode="&#xc5;" horiz-adv-x="1324" d="M35 0l8 58l145 43l438 1145l102 22l402 -1173l135 -31l-8 -64h-462l10 58l169 43l-124 354h-425l-131 -360l185 -32l-10 -63h-434zM453 534h373l-180 526zM508 1528q0 73 48 124q49 51 119 51q36 0 65 -12t49.5 -33.5t31.5 -51t11 -65.5q0 -72 -48 -124q-46 -52 -119 -52 q-72 0 -114.5 45t-42.5 118zM575 1541q0 -49 26 -90q27 -41 71 -41q45 0 68.5 30.5t23.5 84.5t-28 94q-27 40 -72 40t-67 -33.5t-22 -84.5z" />
<glyph unicode="&#xc6;" horiz-adv-x="1686" d="M0 2l8 58l139 42l644 1052l-224 33l9 57h1024l-32 -318l-65 10l-31 237h-486v-504h299l40 132l72 7l-34 -387l-66 -12l-25 187h-286v-521h514l86 251l60 -13l-30 -313h-962l7 58l180 38v376h-355l-227 -376l186 -30l-10 -64h-435zM532 553h310l3 522z" />
<glyph unicode="&#xc7;" horiz-adv-x="1113" d="M108 599q0 193 98 374q96 180 282 255q51 20 106.5 31t116.5 11q220 0 351 -99l-31 -335l-68 10l-36 240q-84 109 -258 109q-173 0 -286 -152q-112 -151 -112 -406q0 -256 126 -404q126 -149 330 -149q100 0 193 48q94 49 164 120l29 -57q-60 -79 -176 -147 q-115 -66 -253 -72l-46 -67q89 -80 89 -151q0 -103 -200 -163l-16 51q43 15 73 42q15 13 21.5 24t8 20t0 16.5t-3.5 13.5q-8 22 -24 42q-2 1 -4 4q-2 2 -4.5 5t-5.5 8l-20 19l-18 17l83 119q-221 15 -365 182q-144 168 -144 441z" />
<glyph unicode="&#xc8;" horiz-adv-x="1107" d="M84 1185l9 59h951l-31 -319l-67 9l-30 239h-503v-505h315l40 129l72 11l-33 -389l-66 -11l-25 186h-303v-519h529l86 249l62 -11l-30 -313h-970l6 58l169 38v1055zM423 1701l104 37l133 -335l-51 -31z" />
<glyph unicode="&#xc9;" horiz-adv-x="1107" d="M84 1185l9 59h951l-31 -319l-67 9l-30 239h-503v-505h315l40 129l72 11l-33 -389l-66 -11l-25 186h-303v-519h529l86 249l62 -11l-30 -313h-970l6 58l169 38v1055zM520 1402l128 330l103 -39l-182 -321z" />
<glyph unicode="&#xca;" horiz-adv-x="1107" d="M84 1185l9 59h951l-31 -319l-67 9l-30 239h-503v-505h315l40 129l72 11l-33 -389l-66 -11l-25 186h-303v-519h529l86 249l62 -11l-30 -313h-970l6 58l169 38v1055zM392 1402l168 180l55 14l178 -186l-40 -37l-173 122h-9l-149 -123z" />
<glyph unicode="&#xcb;" horiz-adv-x="1107" d="M84 1185l9 59h951l-31 -319l-67 9l-30 239h-503v-505h315l40 129l72 11l-33 -389l-66 -11l-25 186h-303v-519h529l86 249l62 -11l-30 -313h-970l6 58l169 38v1055zM412 1454q0 37 19 57.5t50 20.5q32 0 52 -20.5t20 -57.5t-19.5 -59t-51.5 -22t-51 22.5t-19 58.5z M680 1454q0 37 19 57.5t50 20.5q32 0 52.5 -20.5t20.5 -57.5t-20 -59t-53 -22q-32 0 -50.5 22.5t-18.5 58.5z" />
<glyph unicode="&#xcc;" horiz-adv-x="674" d="M86 1187l8 57h501l-9 -57l-172 -31v-1066l187 -27l-10 -63h-497l7 58l162 38v1058zM159 1701l104 37l133 -335l-51 -31z" />
<glyph unicode="&#xcd;" horiz-adv-x="674" d="M86 1187l8 57h501l-9 -57l-172 -31v-1066l187 -27l-10 -63h-497l7 58l162 38v1058zM295 1402l128 330l103 -39l-182 -321z" />
<glyph unicode="&#xce;" horiz-adv-x="674" d="M86 1187l8 57h501l-9 -57l-172 -31v-1066l187 -27l-10 -63h-497l7 58l162 38v1058zM143 1402l168 180l55 14l178 -186l-40 -37l-173 122h-9l-149 -123z" />
<glyph unicode="&#xcf;" horiz-adv-x="674" d="M86 1187l8 57h501l-9 -57l-172 -31v-1066l187 -27l-10 -63h-497l7 58l162 38v1058zM139 1454q0 37 19 57.5t50 20.5q32 0 52 -20.5t20 -57.5t-19.5 -59t-51.5 -22t-51 22.5t-19 58.5zM407 1454q0 37 19 57.5t50 20.5q32 0 52.5 -20.5t20.5 -57.5t-20 -59t-53 -22 q-32 0 -50.5 22.5t-18.5 58.5z" />
<glyph unicode="&#xd0;" horiz-adv-x="1348" d="M81 0l11 58l171 43v486l-181 -13l10 76l171 12v467l-173 26l10 56q156 25 275.5 37t204.5 12q171 0 292 -34q224 -62 324 -215q101 -155 101 -361q0 -207 -123 -376q-121 -169 -351 -238q-123 -36 -270 -36h-472zM409 79h196q165 0 287 69q240 136 240 451 q0 255 -147 419t-428 164q-99 0 -148 -6v-504l272 20l-10 -76l-262 -19v-518z" />
<glyph unicode="&#xd1;" horiz-adv-x="1402" d="M63 1188l10 56h327l667 -1019v929l-185 33l9 57h450l-11 -57l-166 -31v-1159l-104 -21l-713 1071v-957l184 -27l-10 -63h-448l6 58l167 38v1051zM473 1382q20 68 41 93q48 58 106 46l203 -42q22 -5 41 8t35 46l42 -2q-30 -105 -96 -133q-14 -7 -28.5 -8t-30.5 2l-201 42 q-42 9 -79 -62z" />
<glyph unicode="&#xd2;" horiz-adv-x="1331" d="M111 627q-1 92 18.5 176t57 156.5t92 131t123.5 99.5t151.5 63t176.5 21q130 -2 234 -52t173 -138q142 -184 142 -460q0 -206 -104 -376q-168 -275 -535 -275q-71 0 -137.5 21t-130.5 66q-127 88 -193 234.5t-68 332.5zM278 655q0 -104 27 -215t78 -196q53 -87 135 -136 q85 -50 180 -50t166 30q125 55 187 191q62 138 62 300q0 163 -47 304q-46 139 -147 226q-100 88 -238 88q-247 0 -347 -223q-56 -127 -56 -319zM544 1701l104 37l133 -335l-51 -31z" />
<glyph unicode="&#xd3;" horiz-adv-x="1331" d="M111 627q-1 92 18.5 176t57 156.5t92 131t123.5 99.5t151.5 63t176.5 21q130 -2 234 -52t173 -138q142 -184 142 -460q0 -206 -104 -376q-168 -275 -535 -275q-71 0 -137.5 21t-130.5 66q-127 88 -193 234.5t-68 332.5zM278 655q0 -104 27 -215t78 -196q53 -87 135 -136 q85 -50 180 -50t166 30q125 55 187 191q62 138 62 300q0 163 -47 304q-46 139 -147 226q-100 88 -238 88q-247 0 -347 -223q-56 -127 -56 -319zM681 1402l128 330l103 -39l-182 -321z" />
<glyph unicode="&#xd4;" horiz-adv-x="1331" d="M111 627q-1 92 18.5 176t57 156.5t92 131t123.5 99.5t151.5 63t176.5 21q130 -2 234 -52t173 -138q142 -184 142 -460q0 -206 -104 -376q-168 -275 -535 -275q-71 0 -137.5 21t-130.5 66q-127 88 -193 234.5t-68 332.5zM278 655q0 -104 27 -215t78 -196q53 -87 135 -136 q85 -50 180 -50t166 30q125 55 187 191q62 138 62 300q0 163 -47 304q-46 139 -147 226q-100 88 -238 88q-247 0 -347 -223q-56 -127 -56 -319zM529 1402l168 180l55 14l178 -186l-40 -37l-173 122h-9l-149 -123z" />
<glyph unicode="&#xd5;" horiz-adv-x="1331" d="M111 627q-1 92 18.5 176t57 156.5t92 131t123.5 99.5t151.5 63t176.5 21q130 -2 234 -52t173 -138q142 -184 142 -460q0 -206 -104 -376q-168 -275 -535 -275q-71 0 -137.5 21t-130.5 66q-127 88 -193 234.5t-68 332.5zM278 655q0 -104 27 -215t78 -196q53 -87 135 -136 q85 -50 180 -50t166 30q125 55 187 191q62 138 62 300q0 163 -47 304q-46 139 -147 226q-100 88 -238 88q-247 0 -347 -223q-56 -127 -56 -319zM496 1382q20 68 41 93q48 58 106 46l203 -42q22 -5 41 8t35 46l42 -2q-30 -105 -96 -133q-14 -7 -28.5 -8t-30.5 2l-201 42 q-42 9 -79 -62z" />
<glyph unicode="&#xd6;" horiz-adv-x="1331" d="M111 627q-1 92 18.5 176t57 156.5t92 131t123.5 99.5t151.5 63t176.5 21q130 -2 234 -52t173 -138q142 -184 142 -460q0 -206 -104 -376q-168 -275 -535 -275q-71 0 -137.5 21t-130.5 66q-127 88 -193 234.5t-68 332.5zM278 655q0 -104 27 -215t78 -196q53 -87 135 -136 q85 -50 180 -50t166 30q125 55 187 191q62 138 62 300q0 163 -47 304q-46 139 -147 226q-100 88 -238 88q-247 0 -347 -223q-56 -127 -56 -319zM525 1454q0 37 19 57.5t50 20.5q32 0 52 -20.5t20 -57.5t-19.5 -59t-51.5 -22t-51 22.5t-19 58.5zM793 1454q0 37 19 57.5 t50 20.5q32 0 52.5 -20.5t20.5 -57.5t-20 -59t-53 -22q-32 0 -50.5 22.5t-18.5 58.5z" />
<glyph unicode="&#xd7;" horiz-adv-x="779" d="M65 302l170 160l-169 163l71 56l158 -167l169 172l56 -71l-168 -157l173 -166l-70 -56l-164 171l-169 -175z" />
<glyph unicode="&#xd8;" horiz-adv-x="1336" d="M118 620q0 193 74 340t216 231q142 83 328 83q187 0 321 -104l48 63l121 -13l-98 -118q156 -180 156 -478q0 -207 -100 -370q-173 -281 -518 -281q-178 0 -314 107l-60 -85l-116 13l104 140q-162 184 -162 472zM283 678q0 -253 101 -423l600 793q-116 149 -297 149 q-244 0 -347 -223q-57 -125 -57 -296zM422 199q114 -141 293 -141q242 0 347 230q57 124 57 286q0 248 -97 417z" />
<glyph unicode="&#xd9;" horiz-adv-x="1371" d="M61 1187l9 57h498l-7 -57l-169 -31v-653q0 -430 360 -430q165 0 254 98.5t89 294.5l1 688l-184 33l8 57h451l-9 -57l-166 -31l-5 -653q-1 -264 -116 -398q-114 -132 -364 -132q-467 0 -467 492v689zM535 1701l104 37l133 -335l-51 -31z" />
<glyph unicode="&#xda;" horiz-adv-x="1371" d="M61 1187l9 57h498l-7 -57l-169 -31v-653q0 -430 360 -430q165 0 254 98.5t89 294.5l1 688l-184 33l8 57h451l-9 -57l-166 -31l-5 -653q-1 -264 -116 -398q-114 -132 -364 -132q-467 0 -467 492v689zM672 1402l128 330l103 -39l-182 -321z" />
<glyph unicode="&#xdb;" horiz-adv-x="1371" d="M61 1187l9 57h498l-7 -57l-169 -31v-653q0 -430 360 -430q165 0 254 98.5t89 294.5l1 688l-184 33l8 57h451l-9 -57l-166 -31l-5 -653q-1 -264 -116 -398q-114 -132 -364 -132q-467 0 -467 492v689zM519 1402l168 180l55 14l178 -186l-40 -37l-173 122h-9l-149 -123z" />
<glyph unicode="&#xdc;" horiz-adv-x="1371" d="M61 1187l9 57h498l-7 -57l-169 -31v-653q0 -430 360 -430q165 0 254 98.5t89 294.5l1 688l-184 33l8 57h451l-9 -57l-166 -31l-5 -653q-1 -264 -116 -398q-114 -132 -364 -132q-467 0 -467 492v689zM515 1454q0 37 19 57.5t50 20.5q32 0 52 -20.5t20 -57.5t-19.5 -59 t-51.5 -22t-51 22.5t-19 58.5zM783 1454q0 37 19 57.5t50 20.5q32 0 52.5 -20.5t20.5 -57.5t-20 -59t-53 -22q-32 0 -50.5 22.5t-18.5 58.5z" />
<glyph unicode="&#xdd;" horiz-adv-x="1113" d="M-9 1188l9 56h463l-8 -56l-163 -32l296 -551l287 547l-184 36l6 56h417l-6 -56l-127 -32l-347 -647v-418l172 -28l-9 -63h-483l8 58l162 38v401l-354 655zM529 1402l128 330l103 -39l-182 -321z" />
<glyph unicode="&#xde;" horiz-adv-x="889" d="M81 1187l8 57h501l-8 -57l-173 -31v-135q61 3 149 3q191 0 333 -83q142 -82 142 -281q0 -117 -65 -212q-32 -47 -75 -83t-94.5 -61t-109.5 -37.5t-120 -12.5q-18 0 -39 1.5t-45 3.5q-14 44 -14 63l53 1q87 1 151.5 23.5t107.5 62.5t64 96t21 125q0 140 -91 231 q-45 46 -110 71.5t-151 20.5l-107 -7v-852l235 -30l-11 -64h-546l7 57l165 39v1058z" />
<glyph unicode="&#xdf;" horiz-adv-x="1130" d="M70 0l12 52l151 36v716h-147l11 49l138 24q15 252 175 367q82 60 194 60q113 0 189 -70q77 -69 77 -171q0 -101 -76 -186q-32 -35 -64 -67q-77 -77 -77 -128q0 -90 152 -178l126 -73q32 -18 59.5 -41.5t48 -51t32.5 -59t12 -65.5q0 -107 -89 -178q-89 -69 -208 -69 q-121 0 -200 54q-79 55 -79 137q0 51 30.5 78.5t75.5 32.5q40 -228 204 -228q33 0 60.5 9t47 24t30.5 35t11 43q0 39 -27 73.5t-81 66.5l-100 61q-27 17 -52 34t-48 34q-46 35 -77 86.5t-31 108.5q0 49 16.5 94.5t51.5 85.5l58 66q34 39 51 79t17.5 78.5t-15 74t-45.5 65.5 q-60 60 -144 60t-128 -70t-44 -204v-945h-298z" />
<glyph unicode="&#xe0;" d="M93 169q0 62 28 114.5t85 93t144 67t204 37.5v48q0 70 -9.5 124t-31 90t-56.5 54.5t-86 18.5q-56 0 -77 -21q-22 -22 -32 -57q-5 -17 -11 -51.5t-14 -85.5q-107 0 -110 84q-1 38 29.5 75t78 66t103 46.5t105.5 16.5q62 -1 107 -19.5t74 -56t43 -95.5t14 -137v-351 q0 -78 18 -112q19 -33 82 -45l58 -11l-9 -60q-43 -10 -77 -15t-60 -5q-53 0 -87 39q-35 39 -35 95v15h-8q-22 -54 -95 -106q-71 -50 -164 -50q-94 0 -152 52q-59 53 -59 142zM230 207q0 -54 34 -95q35 -41 92 -41q29 0 57.5 9t54 24.5t47.5 36.5t39 45v244 q-164 -28 -244 -79.5t-80 -143.5zM258 1319l104 37l133 -335l-51 -31z" />
<glyph unicode="&#xe1;" d="M93 169q0 62 28 114.5t85 93t144 67t204 37.5v48q0 70 -9.5 124t-31 90t-56.5 54.5t-86 18.5q-56 0 -77 -21q-22 -22 -32 -57q-5 -17 -11 -51.5t-14 -85.5q-107 0 -110 84q-1 38 29.5 75t78 66t103 46.5t105.5 16.5q62 -1 107 -19.5t74 -56t43 -95.5t14 -137v-351 q0 -78 18 -112q19 -33 82 -45l58 -11l-9 -60q-43 -10 -77 -15t-60 -5q-53 0 -87 39q-35 39 -35 95v15h-8q-22 -54 -95 -106q-71 -50 -164 -50q-94 0 -152 52q-59 53 -59 142zM230 207q0 -54 34 -95q35 -41 92 -41q29 0 57.5 9t54 24.5t47.5 36.5t39 45v244 q-164 -28 -244 -79.5t-80 -143.5zM395 1020l128 330l103 -39l-182 -321z" />
<glyph unicode="&#xe2;" d="M93 169q0 62 28 114.5t85 93t144 67t204 37.5v48q0 70 -9.5 124t-31 90t-56.5 54.5t-86 18.5q-56 0 -77 -21q-22 -22 -32 -57q-5 -17 -11 -51.5t-14 -85.5q-107 0 -110 84q-1 38 29.5 75t78 66t103 46.5t105.5 16.5q62 -1 107 -19.5t74 -56t43 -95.5t14 -137v-351 q0 -78 18 -112q19 -33 82 -45l58 -11l-9 -60q-43 -10 -77 -15t-60 -5q-53 0 -87 39q-35 39 -35 95v15h-8q-22 -54 -95 -106q-71 -50 -164 -50q-94 0 -152 52q-59 53 -59 142zM230 207q0 -54 34 -95q35 -41 92 -41q29 0 57.5 9t54 24.5t47.5 36.5t39 45v244 q-164 -28 -244 -79.5t-80 -143.5zM243 1020l168 180l55 14l178 -186l-40 -37l-173 122h-9l-149 -123z" />
<glyph unicode="&#xe3;" d="M93 169q0 62 28 114.5t85 93t144 67t204 37.5v48q0 70 -9.5 124t-31 90t-56.5 54.5t-86 18.5q-56 0 -77 -21q-22 -22 -32 -57q-5 -17 -11 -51.5t-14 -85.5q-107 0 -110 84q-1 38 29.5 75t78 66t103 46.5t105.5 16.5q62 -1 107 -19.5t74 -56t43 -95.5t14 -137v-351 q0 -78 18 -112q19 -33 82 -45l58 -11l-9 -60q-43 -10 -77 -15t-60 -5q-53 0 -87 39q-35 39 -35 95v15h-8q-22 -54 -95 -106q-71 -50 -164 -50q-94 0 -152 52q-59 53 -59 142zM210 1000q20 68 41 93q48 58 106 46l203 -42q22 -5 41 8t35 46l42 -2q-30 -105 -96 -133 q-14 -7 -28.5 -8t-30.5 2l-201 42q-42 9 -79 -62zM230 207q0 -54 34 -95q35 -41 92 -41q29 0 57.5 9t54 24.5t47.5 36.5t39 45v244q-164 -28 -244 -79.5t-80 -143.5z" />
<glyph unicode="&#xe4;" d="M93 169q0 62 28 114.5t85 93t144 67t204 37.5v48q0 70 -9.5 124t-31 90t-56.5 54.5t-86 18.5q-56 0 -77 -21q-22 -22 -32 -57q-5 -17 -11 -51.5t-14 -85.5q-107 0 -110 84q-1 38 29.5 75t78 66t103 46.5t105.5 16.5q62 -1 107 -19.5t74 -56t43 -95.5t14 -137v-351 q0 -78 18 -112q19 -33 82 -45l58 -11l-9 -60q-43 -10 -77 -15t-60 -5q-53 0 -87 39q-35 39 -35 95v15h-8q-22 -54 -95 -106q-71 -50 -164 -50q-94 0 -152 52q-59 53 -59 142zM230 207q0 -54 34 -95q35 -41 92 -41q29 0 57.5 9t54 24.5t47.5 36.5t39 45v244 q-164 -28 -244 -79.5t-80 -143.5zM238 1071q0 37 19 57.5t50 20.5q32 0 52 -20.5t20 -57.5t-19.5 -59t-51.5 -22t-51 22.5t-19 58.5zM506 1071q0 37 19 57.5t50 20.5q32 0 52.5 -20.5t20.5 -57.5t-20 -59t-53 -22q-32 0 -50.5 22.5t-18.5 58.5z" />
<glyph unicode="&#xe5;" d="M93 169q0 62 28 114.5t85 93t144 67t204 37.5v48q0 70 -9.5 124t-31 90t-56.5 54.5t-86 18.5q-56 0 -77 -21q-22 -22 -32 -57q-5 -17 -11 -51.5t-14 -85.5q-107 0 -110 84q-1 38 29.5 75t78 66t103 46.5t105.5 16.5q62 -1 107 -19.5t74 -56t43 -95.5t14 -137v-351 q0 -78 18 -112q19 -33 82 -45l58 -11l-9 -60q-43 -10 -77 -15t-60 -5q-53 0 -87 39q-35 39 -35 95v15h-8q-22 -54 -95 -106q-71 -50 -164 -50q-94 0 -152 52q-59 53 -59 142zM230 207q0 -54 34 -95q35 -41 92 -41q29 0 57.5 9t54 24.5t47.5 36.5t39 45v244 q-164 -28 -244 -79.5t-80 -143.5zM230 1153q0 73 48 124q49 51 119 51q36 0 65 -12t49.5 -33.5t31.5 -51t11 -65.5q0 -72 -48 -124q-46 -52 -119 -52q-72 0 -114.5 45t-42.5 118zM297 1166q0 -50 26 -91q27 -40 71 -40q45 0 68.5 30.5t23.5 84.5t-28 94q-27 40 -72 40 t-67 -33.5t-22 -84.5z" />
<glyph unicode="&#xe6;" horiz-adv-x="1248" d="M92 163q0 123 106 199q107 77 356 114v63q0 140 -38.5 207t-126.5 67q-89 0 -114 -55q-13 -28 -22.5 -64.5t-14.5 -84.5q-108 0 -108 84q0 76 101 135q102 60 212 60q167 0 208 -140q106 138 277 138q57 0 103.5 -19.5t79 -58t50.5 -96.5t18 -134q0 -60 -18 -130 l-483 -20q4 -210 126 -306q66 -52 167 -52q102 0 214 76l19 -42q-116 -134 -309 -134q-86 0 -181 56q-95 57 -122 146q-24 -78 -108 -138t-180 -60q-95 0 -154 50q-58 51 -58 139zM228 200q0 -63 33.5 -100.5t99.5 -37.5q65 0 129 56q64 57 64 137v161q-174 -26 -250 -75 q-76 -48 -76 -141zM678 492l350 37q10 30 10 101q0 69 -44 124q-43 55 -121 55q-77 0 -134 -86q-56 -85 -61 -231z" />
<glyph unicode="&#xe7;" horiz-adv-x="779" d="M91 421q0 200 116 334q115 133 284 133q117 0 174 -48q57 -47 57 -114q0 -82 -95 -99q-31 88 -74 135.5t-110 47.5q-92 0 -152 -88q-60 -89 -60 -255q0 -167 78 -282q80 -116 207 -116q129 0 226 79l21 -46q-32 -44 -98 -80q-67 -35 -143 -47l-49 -71q89 -80 89 -151 q0 -103 -200 -163l-16 51q43 15 73 42q15 13 21.5 24t8 20t0 16t-3.5 13q-8 26 -23 42l-4 4q-2 2 -5 5.5t-7 8.5q-3 4 -19 19l-18 17l82 118q-166 2 -263 126t-97 325z" />
<glyph unicode="&#xe8;" horiz-adv-x="812" d="M94 420q0 109 33.5 199t90.5 147q118 120 268 120q115 0 182.5 -76t67.5 -228q0 -63 -17 -131l-484 -6q5 -149 73 -258q70 -109 201 -109t234 70l19 -44q-116 -134 -309 -134q-147 0 -253 114q-106 115 -106 336zM237 507l351 23q7 18 7 95t-43 130q-42 54 -120 54 t-135 -79q-56 -78 -60 -223zM284 1319l104 37l133 -335l-51 -31z" />
<glyph unicode="&#xe9;" horiz-adv-x="812" d="M94 420q0 109 33.5 199t90.5 147q118 120 268 120q115 0 182.5 -76t67.5 -228q0 -63 -17 -131l-484 -6q5 -149 73 -258q70 -109 201 -109t234 70l19 -44q-116 -134 -309 -134q-147 0 -253 114q-106 115 -106 336zM237 507l351 23q7 18 7 95t-43 130q-42 54 -120 54 t-135 -79q-56 -78 -60 -223zM421 1020l128 330l103 -39l-182 -321z" />
<glyph unicode="&#xea;" horiz-adv-x="812" d="M94 420q0 109 33.5 199t90.5 147q118 120 268 120q115 0 182.5 -76t67.5 -228q0 -63 -17 -131l-484 -6q5 -149 73 -258q70 -109 201 -109t234 70l19 -44q-116 -134 -309 -134q-147 0 -253 114q-106 115 -106 336zM237 507l351 23q7 18 7 95t-43 130q-42 54 -120 54 t-135 -79q-56 -78 -60 -223zM285 1020l168 180l55 14l178 -186l-40 -37l-173 122h-9l-149 -123z" />
<glyph unicode="&#xeb;" horiz-adv-x="812" d="M94 420q0 109 33.5 199t90.5 147q118 120 268 120q115 0 182.5 -76t67.5 -228q0 -63 -17 -131l-484 -6q5 -149 73 -258q70 -109 201 -109t234 70l19 -44q-116 -134 -309 -134q-147 0 -253 114q-106 115 -106 336zM237 507l351 23q7 18 7 95t-43 130q-42 54 -120 54 t-135 -79q-56 -78 -60 -223zM281 1071q0 37 19 57.5t50 20.5q32 0 52 -20.5t20 -57.5t-19.5 -59t-51.5 -22t-51 22.5t-19 58.5zM549 1071q0 37 19 57.5t50 20.5q32 0 52.5 -20.5t20.5 -57.5t-20 -59t-53 -22q-32 0 -50.5 22.5t-18.5 58.5z" />
<glyph unicode="&#xec;" horiz-adv-x="555" d="M80 0l12 55l151 32v685l-152 42l8 51l259 22l16 -16v-784l160 -30l-11 -57h-443zM122 1319l104 37l133 -335l-51 -31z" />
<glyph unicode="&#xed;" horiz-adv-x="555" d="M80 0l12 55l151 32v685l-152 42l8 51l259 22l16 -16v-784l160 -30l-11 -57h-443zM259 1020l128 330l103 -39l-182 -321z" />
<glyph unicode="&#xee;" horiz-adv-x="555" d="M80 0l12 55l151 32v685l-152 42l8 51l259 22l16 -16v-784l160 -30l-11 -57h-443zM107 1020l168 180l55 14l178 -186l-40 -37l-173 122h-9l-149 -123z" />
<glyph unicode="&#xef;" horiz-adv-x="555" d="M80 0l12 55l151 32v685l-152 42l8 51l259 22l16 -16v-784l160 -30l-11 -57h-443zM103 1071q0 37 19 57.5t50 20.5q32 0 52 -20.5t20 -57.5t-19.5 -59t-51.5 -22t-51 22.5t-19 58.5zM371 1071q0 37 19 57.5t50 20.5q32 0 52.5 -20.5t20.5 -57.5t-20 -59t-53 -22 q-32 0 -50.5 22.5t-18.5 58.5z" />
<glyph unicode="&#xf0;" horiz-adv-x="931" d="M107 451q0 220 101 359q100 139 261 139q59 0 118 -37q58 -37 80 -92l7 1q-32 116 -133 265l-232 -46l11 63l187 38q-68 90 -146 162h92q79 -49 158 -139l156 33l-9 -64l-103 -21q203 -269 203 -647q0 -226 -105 -359t-270 -133q-218 0 -318 205q-58 117 -58 273z M246 505q0 -218 74 -337q73 -118 186 -118q74 0 124 50q91 92 91 307t-82 340q-84 128 -183 128h-5q-70 0 -119 -54q-43 -49 -65 -127.5t-21 -188.5z" />
<glyph unicode="&#xf1;" horiz-adv-x="1071" d="M79 0l8 52l153 34v669l-155 39l7 52l265 30l12 -14l-10 -132h8q49 61 135 111q85 49 184 49q49 0 90.5 -18.5t70.5 -54.5t45.5 -90.5t16.5 -126.5v-514l141 -28l-7 -58h-413l8 52l140 34v482q0 54 -12.5 94t-35 66.5t-53.5 39.5t-67 13t-67 -6t-59.5 -19.5t-56 -34.5 t-57.5 -51v-584l146 -28l-10 -58h-427zM331 1000q20 68 41 93q48 58 106 46l203 -42q22 -5 41 8t35 46l42 -2q-30 -105 -96 -133q-14 -7 -28.5 -8t-30.5 2l-201 42q-42 9 -79 -62z" />
<glyph unicode="&#xf2;" horiz-adv-x="944" d="M94 422q0 208 121 338q121 129 297 131q85 0 155 -35t119.5 -96t76 -143.5t25.5 -177.5q-2 -207 -117 -336q-115 -130 -289 -130q-173 0 -281 121q-107 122 -107 328zM235 495q0 -127 31 -222t97 -157t164 -62t159 94t61 244q0 148 -69 276q-33 63 -87.5 100.5 t-121.5 37.5q-109 0 -172 -93q-62 -92 -62 -218zM327 1319l104 37l133 -335l-51 -31z" />
<glyph unicode="&#xf3;" horiz-adv-x="944" d="M94 422q0 208 121 338q121 129 297 131q85 0 155 -35t119.5 -96t76 -143.5t25.5 -177.5q-2 -207 -117 -336q-115 -130 -289 -130q-173 0 -281 121q-107 122 -107 328zM235 495q0 -127 31 -222t97 -157t164 -62t159 94t61 244q0 148 -69 276q-33 63 -87.5 100.5 t-121.5 37.5q-109 0 -172 -93q-62 -92 -62 -218zM464 1020l128 330l103 -39l-182 -321z" />
<glyph unicode="&#xf4;" horiz-adv-x="944" d="M94 422q0 208 121 338q121 129 297 131q85 0 155 -35t119.5 -96t76 -143.5t25.5 -177.5q-2 -207 -117 -336q-115 -130 -289 -130q-173 0 -281 121q-107 122 -107 328zM235 495q0 -127 31 -222t97 -157t164 -62t159 94t61 244q0 148 -69 276q-33 63 -87.5 100.5 t-121.5 37.5q-109 0 -172 -93q-62 -92 -62 -218zM312 1020l168 180l55 14l178 -186l-40 -37l-173 122h-9l-149 -123z" />
<glyph unicode="&#xf5;" horiz-adv-x="944" d="M94 422q0 208 121 338q121 129 297 131q85 0 155 -35t119.5 -96t76 -143.5t25.5 -177.5q-2 -207 -117 -336q-115 -130 -289 -130q-173 0 -281 121q-107 122 -107 328zM235 495q0 -127 31 -222t97 -157t164 -62t159 94t61 244q0 148 -69 276q-33 63 -87.5 100.5 t-121.5 37.5q-109 0 -172 -93q-62 -92 -62 -218zM279 1000q20 68 41 93q48 58 106 46l203 -42q22 -5 41 8t35 46l42 -2q-30 -105 -96 -133q-14 -7 -28.5 -8t-30.5 2l-201 42q-42 9 -79 -62z" />
<glyph unicode="&#xf6;" horiz-adv-x="944" d="M94 422q0 208 121 338q121 129 297 131q85 0 155 -35t119.5 -96t76 -143.5t25.5 -177.5q-2 -207 -117 -336q-115 -130 -289 -130q-173 0 -281 121q-107 122 -107 328zM235 495q0 -127 31 -222t97 -157t164 -62t159 94t61 244q0 148 -69 276q-33 63 -87.5 100.5 t-121.5 37.5q-109 0 -172 -93q-62 -92 -62 -218zM307 1071q0 37 19 57.5t50 20.5q32 0 52 -20.5t20 -57.5t-19.5 -59t-51.5 -22t-51 22.5t-19 58.5zM575 1071q0 37 19 57.5t50 20.5q32 0 52.5 -20.5t20.5 -57.5t-20 -59t-53 -22q-32 0 -50.5 22.5t-18.5 58.5z" />
<glyph unicode="&#xf7;" horiz-adv-x="958" d="M68 465l13 85h812l-11 -85h-814zM383 225q0 49 24 77t66 28t68 -29t26 -78q0 -48 -25.5 -79.5t-67.5 -31.5t-66.5 32t-24.5 81zM383 789q0 49 24 77t66 28t68 -28.5t26 -77.5t-25.5 -80.5t-67.5 -31.5t-66.5 32t-24.5 81z" />
<glyph unicode="&#xf8;" horiz-adv-x="944" d="M56 0l114 129q-82 115 -82 288q0 224 123 355t296 131q136 0 232 -87l44 57l135 7l-115 -139q80 -124 80 -313t-117 -322t-273 -133q-157 0 -258 85l-42 -52zM231 486q0 -141 50 -256l382 465q-76 124 -193 124q-116 0 -177 -96q-62 -95 -62 -237zM309 176 q77 -122 208 -122q103 0 163 97q61 97 61 235q0 141 -49 252z" />
<glyph unicode="&#xf9;" horiz-adv-x="1013" d="M54 800l8 53l249 21l16 -17v-540q0 -231 172 -231q114 0 206 101v567l-157 36l6 60l266 24l14 -17v-634q0 -38 5 -64t16 -43.5t30 -28.5t48 -17l54 -12l-7 -59q-69 -20 -130 -20t-97 40t-36 101v12h-12q-105 -156 -278 -156q-228 0 -228 299v482zM331 1319l104 37 l133 -335l-51 -31z" />
<glyph unicode="&#xfa;" horiz-adv-x="1013" d="M54 800l8 53l249 21l16 -17v-540q0 -231 172 -231q114 0 206 101v567l-157 36l6 60l266 24l14 -17v-634q0 -38 5 -64t16 -43.5t30 -28.5t48 -17l54 -12l-7 -59q-69 -20 -130 -20t-97 40t-36 101v12h-12q-105 -156 -278 -156q-228 0 -228 299v482zM444 1020l128 330 l103 -39l-182 -321z" />
<glyph unicode="&#xfb;" horiz-adv-x="1013" d="M54 800l8 53l249 21l16 -17v-540q0 -231 172 -231q114 0 206 101v567l-157 36l6 60l266 24l14 -17v-634q0 -38 5 -64t16 -43.5t30 -28.5t48 -17l54 -12l-7 -59q-69 -20 -130 -20t-97 40t-36 101v12h-12q-105 -156 -278 -156q-228 0 -228 299v482zM300 1020l168 180l55 14 l178 -186l-40 -37l-173 122h-9l-149 -123z" />
<glyph unicode="&#xfc;" horiz-adv-x="1013" d="M54 800l8 53l249 21l16 -17v-540q0 -231 172 -231q114 0 206 101v567l-157 36l6 60l266 24l14 -17v-634q0 -38 5 -64t16 -43.5t30 -28.5t48 -17l54 -12l-7 -59q-69 -20 -130 -20t-97 40t-36 101v12h-12q-105 -156 -278 -156q-228 0 -228 299v482zM296 1071q0 37 19 57.5 t50 20.5q32 0 52 -20.5t20 -57.5t-19.5 -59t-51.5 -22t-51 22.5t-19 58.5zM564 1071q0 37 19 57.5t50 20.5q32 0 52.5 -20.5t20.5 -57.5t-20 -59t-53 -22q-32 0 -50.5 22.5t-18.5 58.5z" />
<glyph unicode="&#xfd;" horiz-adv-x="936" d="M30 -266q0 51 45 90q70 -53 158 -53q56 0 101.5 44.5t80.5 135.5l23 61l-278 760l-124 33l9 56h383l-6 -53l-127 -33l215 -580l230 576l-130 35l11 55h317l-5 -53l-101 -36l-330 -825q-71 -178 -143 -253q-70 -73 -184 -73q-63 0 -104 31q-41 30 -41 82zM443 1020 l128 330l103 -39l-182 -321z" />
<glyph unicode="&#xfe;" horiz-adv-x="961" d="M39 -370l6 59l152 29l-3 1436l-150 42l8 54l261 20l16 -16v-405l-12 -109h9q128 158 269 158t225 -113q85 -112 85 -320q0 -209 -120 -345q-119 -137 -302 -137q-60 0 -106 13l-4 86q49 -16 128 -16q126 0 192 96q67 95 67 263q0 166 -56 267q-55 100 -167 100 q-63 0 -112.5 -31.5t-98.5 -82.5v-961l156 -26l-10 -61h-433z" />
<glyph unicode="&#xff;" horiz-adv-x="936" d="M30 -266q0 51 45 90q70 -53 158 -53q56 0 101.5 44.5t80.5 135.5l23 61l-278 760l-124 33l9 56h383l-6 -53l-127 -33l215 -580l230 576l-130 35l11 55h317l-5 -53l-101 -36l-330 -825q-71 -178 -143 -253q-70 -73 -184 -73q-63 0 -104 31q-41 30 -41 82zM286 1071 q0 37 19 57.5t50 20.5q32 0 52 -20.5t20 -57.5t-19.5 -59t-51.5 -22t-51 22.5t-19 58.5zM554 1071q0 37 19 57.5t50 20.5q32 0 52.5 -20.5t20.5 -57.5t-20 -59t-53 -22q-32 0 -50.5 22.5t-18.5 58.5z" />
<glyph unicode="&#x152;" horiz-adv-x="1679" d="M64 620q0 297 157 475q158 179 436 179q104 0 182 -29l714 -1l-31 -319l-66 9l-30 239h-481v-505h293l40 129l73 11l-34 -389l-67 -11l-25 186h-280v-519h507l85 249l63 -11l-31 -313h-777q-111 -27 -204 -27q-162 0 -281 86q-121 87 -182 232.5t-61 328.5zM229 706 q0 -124 15 -214q32 -187 130 -312t259 -125q89 0 162 38v1046q-82 58 -196 58q-113 0 -200 -69q-87 -68 -129 -183q-41 -117 -41 -239z" />
<glyph unicode="&#x153;" horiz-adv-x="1416" d="M70 417q0 111 32.5 202t89.5 149q116 122 274 122q51 0 97 -13t90 -38q88 -51 125 -138q46 79 129 132t191 53q54 0 98.5 -17.5t76.5 -54t49.5 -92.5t17.5 -132q0 -75 -17 -143l-483 -5q0 -155 74 -262t198 -107t234 75l22 -44q-116 -134 -311 -134q-100 0 -175.5 51.5 t-121.5 139.5q-113 -188 -317 -188q-169 0 -271 123q-102 124 -102 321zM213 502q0 -126 30 -223q32 -100 94 -160q63 -62 152 -62t149 97t60 217q0 60 -7 113t-21 100q-29 95 -89 158q-62 65 -158 65t-153 -89t-57 -216zM841 505l351 22q8 30 8 106q0 79 -43 125 q-44 47 -118 47t-134 -79t-64 -221z" />
<glyph unicode="&#x178;" horiz-adv-x="1113" d="M-9 1188l9 56h463l-8 -56l-163 -32l296 -551l287 547l-184 36l6 56h417l-6 -56l-127 -32l-347 -647v-418l172 -28l-9 -63h-483l8 58l162 38v401l-354 655zM360 1454q0 37 19 57.5t50 20.5q32 0 52 -20.5t20 -57.5t-19.5 -59t-51.5 -22t-51 22.5t-19 58.5zM628 1454 q0 37 19 57.5t50 20.5q32 0 52.5 -20.5t20.5 -57.5t-20 -59t-53 -22q-32 0 -50.5 22.5t-18.5 58.5z" />
<glyph unicode="&#x2c6;" horiz-adv-x="615" d="M105 1388l168 180l55 14l178 -186l-40 -37l-173 122h-9l-149 -123z" />
<glyph unicode="&#x2dc;" horiz-adv-x="798" d="M108 1381q20 68 41 93q48 58 106 46l203 -42q22 -5 41 8t35 46l42 -2q-30 -104 -96 -134q-27 -11 -59 -5l-201 42q-42 9 -79 -62z" />
<glyph unicode="&#x2000;" horiz-adv-x="869" />
<glyph unicode="&#x2001;" horiz-adv-x="1738" />
<glyph unicode="&#x2002;" horiz-adv-x="869" />
<glyph unicode="&#x2003;" horiz-adv-x="1738" />
<glyph unicode="&#x2004;" horiz-adv-x="579" />
<glyph unicode="&#x2005;" horiz-adv-x="434" />
<glyph unicode="&#x2006;" horiz-adv-x="289" />
<glyph unicode="&#x2007;" horiz-adv-x="289" />
<glyph unicode="&#x2008;" horiz-adv-x="217" />
<glyph unicode="&#x2009;" horiz-adv-x="347" />
<glyph unicode="&#x200a;" horiz-adv-x="96" />
<glyph unicode="&#x2010;" horiz-adv-x="573" d="M81 409l11 80l408 18l-11 -81z" />
<glyph unicode="&#x2011;" horiz-adv-x="573" d="M81 409l11 80l408 18l-11 -81z" />
<glyph unicode="&#x2012;" horiz-adv-x="573" d="M81 409l11 80l408 18l-11 -81z" />
<glyph unicode="&#x2013;" horiz-adv-x="792" d="M86 420l13 83l611 6l-13 -83z" />
<glyph unicode="&#x2014;" horiz-adv-x="1301" d="M86 420l14 83l1120 6l-14 -83z" />
<glyph unicode="&#x2018;" horiz-adv-x="397" d="M55 966q0 92 39 154q73 115 241 163l18 -58q-180 -59 -180 -190q0 -27 8.5 -49.5t23.5 -39t35.5 -26t44.5 -9.5q15 0 29 3q8 -26 8 -41q0 -49 -32 -77.5t-86 -28.5q-52 0 -101 54q-48 54 -48 145z" />
<glyph unicode="&#x2019;" horiz-adv-x="397" d="M54 824q180 58 180 190q0 27 -8.5 49.5t-23.5 39t-35.5 26t-44.5 9.5q-16 0 -29 -3q-8 26 -8 56q0 33 32 62q34 29 85 29q53 0 101 -54q49 -53 49 -146q0 -92 -40 -153q-73 -115 -240 -163z" />
<glyph unicode="&#x201a;" horiz-adv-x="397" d="M54 -240q180 58 180 190q0 27 -8.5 49.5t-23.5 39t-35.5 26t-44.5 9.5q-16 0 -29 -3q-8 26 -8 56q0 33 32 62q34 29 85 29q53 0 101 -54q49 -53 49 -146q0 -92 -40 -153q-73 -115 -240 -163z" />
<glyph unicode="&#x201c;" horiz-adv-x="397" d="M55 966q0 92 39 154q73 115 241 163l18 -58q-180 -59 -180 -190q0 -27 8.5 -49.5t23.5 -39t35.5 -26t44.5 -9.5q15 0 29 3q8 -26 8 -41q0 -49 -32 -77.5t-86 -28.5q-52 0 -101 54q-48 54 -48 145zM371 966q0 92 39 154q73 115 241 163l18 -58q-180 -59 -180 -190 q0 -27 8.5 -49.5t23.5 -39t35.5 -26t44.5 -9.5q15 0 29 3q8 -26 8 -41q0 -49 -32 -77.5t-86 -28.5q-52 0 -101 54q-48 54 -48 145z" />
<glyph unicode="&#x201d;" horiz-adv-x="397" d="M54 824q180 58 180 190q0 27 -8.5 49.5t-23.5 39t-35.5 26t-44.5 9.5q-16 0 -29 -3q-8 26 -8 56q0 33 32 62q34 29 85 29q53 0 101 -54q49 -53 49 -146q0 -92 -40 -153q-73 -115 -240 -163zM401 824q180 58 180 190q0 27 -8.5 49.5t-23.5 39t-35.5 26t-44.5 9.5 q-16 0 -29 -3q-8 26 -8 56q0 33 32 62q34 29 85 29q53 0 101 -54q49 -53 49 -146q0 -92 -39 -153q-73 -115 -241 -163z" />
<glyph unicode="&#x201e;" horiz-adv-x="397" d="M54 -240q180 58 180 190q0 27 -8.5 49.5t-23.5 39t-35.5 26t-44.5 9.5q-16 0 -29 -3q-8 26 -8 56q0 33 32 62q34 29 85 29q53 0 101 -54q49 -53 49 -146q0 -92 -40 -153q-73 -115 -240 -163zM378 -240q180 58 180 190q0 27 -8.5 49.5t-23.5 39t-35.5 26t-44.5 9.5 q-16 0 -29 -3q-8 26 -8 56q0 33 32 62q34 29 85 29q53 0 101 -54q49 -53 49 -146q0 -92 -40 -153q-73 -115 -240 -163z" />
<glyph unicode="&#x2022;" horiz-adv-x="1174" d="M128 575q0 72 32 112.5t86 40.5t88 -42t34 -114q0 -70 -32.5 -114t-87.5 -44q-27 0 -49.5 12t-38 33.5t-24 51t-8.5 64.5z" />
<glyph unicode="&#x2026;" horiz-adv-x="1174" d="M109 80q0 49 24 77.5t66 28.5t67.5 -29t25.5 -78t-25 -80t-67 -31t-66.5 31.5t-24.5 80.5zM501 80q0 49 24 77.5t66 28.5t67.5 -29t25.5 -78t-25 -80t-67 -31t-66.5 31.5t-24.5 80.5zM892 80q0 49 24 77.5t66 28.5t67.5 -29t25.5 -78t-25 -80t-67 -31t-66.5 31.5 t-24.5 80.5z" />
<glyph unicode="&#x202f;" horiz-adv-x="347" />
<glyph unicode="&#x2039;" horiz-adv-x="432" d="M51 469l268 352l36 -47l-176 -313l177 -333l-42 -51l-261 372z" />
<glyph unicode="&#x203a;" horiz-adv-x="432" d="M51 128l177 333l-176 313l36 47l268 -352l-2 -20l-261 -372z" />
<glyph unicode="&#x205f;" horiz-adv-x="434" />
<glyph unicode="&#x20ac;" horiz-adv-x="1117" d="M-26 493l6 83h162l-1 34q0 10 0.5 25.5t1.5 36.5h-160l5 82h165q36 214 178 365t386 151q51 0 93.5 -5.5t80.5 -17t73 -30.5t71 -46l-32 -335l-65 10l-37 240q-36 52 -83 78t-131 26q-161 0 -257 -116q-96 -115 -117 -320h539l-17 -82h-527v-31q0 -11 0.5 -27.5 t1.5 -37.5h495l-17 -83h-470q28 -202 132 -316q103 -114 265 -114q52 0 107 27.5t95 82.5l37 244l66 9l31 -319q-94 -70 -182 -102q-86 -30 -205 -30q-209 0 -348 139t-168 379h-174z" />
<glyph unicode="&#x2122;" horiz-adv-x="1138" d="M45 1244h532l-15 -161l-53 5l-12 109h-145v-456l82 -13l-6 -44h-248l3 41l77 18v454h-139l-20 -113l-52 5zM580 684l4 39l75 18l35 446l-83 17l4 40h202l33 -86l111 -334l134 351l30 69h197l-4 -40l-76 -16l24 -450l81 -12l-2 -42h-245l4 39l76 18l-26 427l-169 -458 l-70 -6l-164 452l-32 -418l82 -12l-5 -42h-216z" />
<glyph unicode="&#xe000;" horiz-adv-x="870" d="M0 0v870h870v-870h-870z" />
</font>
</defs>
</svg>
